<?xml version="1.0" encoding="UTF-8" standalone="no"?>
<svg
   xmlns:dc="http://purl.org/dc/elements/1.1/"
   xmlns:cc="http://creativecommons.org/ns#"
   xmlns:rdf="http://www.w3.org/1999/02/22-rdf-syntax-ns#"
   xmlns:svg="http://www.w3.org/2000/svg"
   xmlns="http://www.w3.org/2000/svg"
   xmlns:sodipodi="http://sodipodi.sourceforge.net/DTD/sodipodi-0.dtd"
   xmlns:inkscape="http://www.inkscape.org/namespaces/inkscape"
   width="716.47015"
   height="600"
   viewBox="0 0 716.47015 600"
   version="1.1"
   id="svg207"
   sodipodi:docname="Make_it_everywhere.svg"
   style="fill:none"
   inkscape:version="0.92.3 (2405546, 2018-03-11)">
  <metadata
     id="metadata211">
    <rdf:RDF>
      <cc:Work
         rdf:about="">
        <dc:format>image/svg+xml</dc:format>
        <dc:type
           rdf:resource="http://purl.org/dc/dcmitype/StillImage" />
        <dc:title></dc:title>
      </cc:Work>
    </rdf:RDF>
  </metadata>
  <sodipodi:namedview
     pagecolor="#ffffff"
     bordercolor="#666666"
     borderopacity="1"
     objecttolerance="10"
     gridtolerance="10"
     guidetolerance="10"
     inkscape:pageopacity="0"
     inkscape:pageshadow="2"
     inkscape:window-width="1920"
     inkscape:window-height="1001"
     id="namedview209"
     showgrid="false"
     fit-margin-top="0"
     fit-margin-left="0"
     fit-margin-right="0"
     fit-margin-bottom="0"
     inkscape:zoom="1.2756757"
     inkscape:cx="110"
     inkscape:cy="91.735991"
     inkscape:window-x="-9"
     inkscape:window-y="-9"
     inkscape:window-maximized="1"
     inkscape:current-layer="svg207" />
  <g
     clip-path="url(#clip0)"
     id="g74"
     transform="matrix(3.2567441,0,0,3.2567441,0,-0.00948107)">
    <path
       d="M 48.8611,20.0211 C 41.3372,29.288 36.6517,40.8098 30.1673,50.9322 25.3699,58.4961 19.5171,65.2684 14.6397,72.8003 4.91703,87.8001 -0.951766,106.086 0.11965,124.356 c 1.07142,18.27 9.59477,36.308 23.80305,46.311 8.7232,6.149 19.0456,9.067 29.312,10.962 34.5651,6.396 71.7693,1.471 101.3043,-18.926 5.07,-3.502 9.923,-7.452 15.424,-10.106 14.128,-6.828 32.454,-5.245 42.697,-17.783 6.164,-7.547 7.524,-18.342 7.316,-28.408 C 219.728,94.3166 217.361,81.6195 209.997,72.5524 200.402,60.6629 184.731,57.4807 171.762,50.1647 159.121,43.0725 148.926,31.9186 138.068,21.956 111.947,-2.02288 74.3671,-11.3938 48.8611,20.0211 Z"
       id="path2"
       inkscape:connector-curvature="0"
       style="opacity:0.18000004;fill:#68e1fd" />
    <path
       d="m 174.185,119.255 c 0.001,0.74 -0.149,1.472 -0.442,2.152 -0.293,0.679 -0.722,1.291 -1.261,1.798 -0.923,0.877 -2.115,1.418 -3.383,1.535 -0.236,0.02 -0.474,0.02 -0.711,0 l -39.715,-0.8 c -1.522,-0.016 -2.978,-0.626 -4.058,-1.7 -1.079,-1.073 -1.697,-2.526 -1.722,-4.048 -0.003,-0.74 0.145,-1.473 0.435,-2.153 0.29,-0.681 0.716,-1.295 1.252,-1.805 1.102,-1.049 2.572,-1.623 4.093,-1.599 h 1.352 c -0.28,-0.981 -0.422,-1.995 -0.424,-3.015 -0.002,-1.457 0.293,-2.899 0.868,-4.238 0.574,-1.339 1.416,-2.547 2.474,-3.549 0.934,-0.893 2.016,-1.616 3.198,-2.1353 1.532,-0.6677 3.191,-0.995 4.862,-0.9595 l 3.374,0.072 c 2.099,0.0428 4.148,0.6486 5.933,1.7538 1.785,1.106 3.24,2.671 4.213,4.531 0.973,-0.463 2.042,-0.69 3.119,-0.664 h 0.871 c 1.808,0.019 3.537,0.742 4.82,2.015 1.282,1.274 2.017,2.998 2.048,4.805 v 0.328 c 0,0.623 -0.092,1.243 -0.271,1.839 l 3.286,0.064 c 1.526,0.021 2.984,0.635 4.065,1.713 1.08,1.078 1.699,2.534 1.724,4.06 z"
       id="path4"
       inkscape:connector-curvature="0"
       style="fill:#ffffff" />
    <path
       d="m 169.099,124.74 c -0.236,0.02 -0.474,0.02 -0.711,0 l -39.715,-0.8 c -1.522,-0.016 -2.978,-0.626 -4.058,-1.7 -1.079,-1.073 -1.697,-2.526 -1.722,-4.049 -0.003,-0.739 0.145,-1.472 0.435,-2.152 0.29,-0.681 0.716,-1.295 1.252,-1.805 -1.599,9.81 8.675,8.403 8.675,8.403 h 25.802 z"
       id="path6"
       inkscape:connector-curvature="0"
       style="fill:url(#paint0_linear)" />
    <path
       d="m 132.935,113.818 -2.886,-1.095 c -0.28,-0.981 -0.422,-1.995 -0.424,-3.015 -0.002,-1.457 0.293,-2.899 0.868,-4.238 0.574,-1.34 1.416,-2.547 2.474,-3.55 0.934,-0.892 2.016,-1.615 3.198,-2.1344 -7.987,6.8444 -3.23,14.0324 -3.23,14.0324 z"
       id="path8"
       inkscape:connector-curvature="0"
       style="fill:url(#paint1_linear)" />
    <path
       d="m 84.7535,175.081 c 28.0585,0 50.8045,-20.545 50.8045,-45.887 0,-25.343 -22.746,-45.8874 -50.8045,-45.8874 -28.0584,0 -50.8043,20.5444 -50.8043,45.8874 0,25.342 22.7459,45.887 50.8043,45.887 z"
       id="path10"
       inkscape:connector-curvature="0"
       style="opacity:0.23000004;fill:#68e1fd" />
    <path
       d="m 147.831,121.59 c 0.013,10.653 -3.454,21.019 -9.875,29.519 l -0.104,0.144 c -7.035,9.273 -17.138,15.743 -28.503,18.254 -11.3658,2.511 -23.2538,0.901 -33.5414,-4.544 -10.2875,-5.445 -18.3045,-14.369 -22.6193,-25.18 -4.3147,-10.81 -4.6461,-22.802 -0.935,-33.834 3.711,-11.0325 11.2229,-20.3862 21.194,-26.3909 9.9711,-6.0047 21.7521,-8.2695 33.2387,-6.3897 11.487,1.8798 21.932,7.7816 29.468,16.6515 7.537,8.8699 11.676,20.1301 11.677,31.7701 z"
       id="path12"
       inkscape:connector-curvature="0"
       style="fill:#68e1fd" />
    <path
       d="m 82.9706,97.4509 c -2.6945,1.1114 -5.6689,1.3753 -8.4354,2.2868 -2.7665,0.9113 -5.541,2.7503 -6.2526,5.5973 -0.3678,1.431 -0.1759,3.022 -0.8795,4.317 -0.9355,1.743 -3.1263,2.399 -4.4536,3.838 -2.5266,2.783 -0.8635,7.556 2.2228,9.707 3.0863,2.151 7.0282,2.479 10.7221,3.11 1.0109,0.081 1.9745,0.462 2.7665,1.096 2.1509,2.054 -0.2318,5.772 0.6797,8.603 0.5117,1.599 2.0229,2.694 2.7105,4.23 1.3193,2.926 -0.6796,6.156 -1.9989,9.083 -2.3796,5.338 -2.5946,11.392 -0.5997,16.886 -0.0919,0.133 -0.1935,0.259 -0.3038,0.376 -5.262,-2.309 -10.0809,-5.518 -14.2403,-9.483 -4.0538,-5.685 -7.26,-11.881 -6.9242,-18.693 0.1839,-3.694 1.4152,-7.26 1.6471,-10.938 0.3838,-5.973 -1.775,-12.458 1.1514,-17.671 1.5991,-2.886 4.7174,-6.053 2.9744,-8.851 -3.0784,0.448 -6.3966,0.52 -9.219,-0.552 3.4634,-7.2147 8.6382,-13.4736 15.0738,-18.2313 6.4355,-4.7577 13.9366,-7.8699 21.85,-9.0655 3.0384,8.6833 0.6237,20.5168 -8.4913,24.3547 z"
       id="path14"
       inkscape:connector-curvature="0"
       style="fill:url(#paint2_linear)" />
    <path
       d="m 147.831,121.59 c 0.004,3.104 -0.288,6.201 -0.871,9.251 -1.304,1.06 -2.525,2.217 -3.654,3.462 -3.878,4.541 -4.717,10.842 -5.349,16.79 0,0.128 0,0.256 -0.04,0.376 0,-0.08 0,-0.152 -0.064,-0.232 -0.309,-1.527 -0.974,-2.96 -1.943,-4.181 -1.103,-1.192 -3.062,-1.783 -4.406,-0.848 -0.639,-1.599 -1.282,-3.185 -1.927,-4.757 -3.997,0 -8.123,0 -11.881,-1.415 -3.758,-1.416 -6.868,-4.126 -9.875,-6.773 0.395,-4.586 0.309,-9.2 -0.256,-13.768 11.679,-1.268 22.481,-6.793 30.344,-15.52 -7.032,-0.35 -14.004,1.448 -19.989,5.157 -1.279,0.8 -2.575,1.695 -4.07,1.823 -0.947,0.024 -1.892,-0.106 -2.798,-0.383 l -9.667,-2.455 c -1.208,-6.221 3.102,-12.4653 8.643,-15.5436 4.158,-2.3027 9.203,-1.855 13.193,-3.8699 2.734,-1.3752 3.534,-3.7819 5.925,-5.549 h 0.048 c 5.807,4.5831 10.501,10.4221 13.729,17.0785 3.228,6.657 4.906,13.958 4.908,21.357 z"
       id="path16"
       inkscape:connector-curvature="0"
       style="fill:url(#paint3_linear)" />
    <path
       d="m 113.946,111.651 c -0.288,0.944 -0.56,2.047 0,2.839 0.275,0.338 0.637,0.595 1.047,0.743 0.478,0.228 1.009,0.32 1.535,0.265 0.527,-0.055 1.027,-0.255 1.448,-0.577 0.438,-0.48 0.749,-1.063 0.903,-1.695 0.748,-2.294 1.283,-4.652 1.599,-7.044 0.06,-0.22 0.06,-0.452 0,-0.672 -0.125,-0.23 -0.325,-0.411 -0.568,-0.511 -1.271,-0.68 -3.262,-1.224 -3.997,0.28 -0.904,1.934 -1.328,4.325 -1.967,6.372 z"
       id="path18"
       inkscape:connector-curvature="0"
       style="fill:#fbc4d6" />
    <path
       d="m 117.792,112.747 c 0.268,-0.037 0.542,-0.013 0.799,0.071 0.176,0.098 0.329,0.231 0.448,0.392 l 2.759,3.095 c 0.535,0.599 1.095,1.423 0.719,2.134 -0.132,0.198 -0.307,0.364 -0.512,0.486 -0.205,0.122 -0.434,0.196 -0.671,0.218 -1.336,0.122 -2.679,-0.141 -3.87,-0.76 -0.848,-0.367 -1.687,-0.799 -2.511,-1.199 -0.612,-0.278 -1.147,-0.7 -1.559,-1.231 -0.631,-0.96 -0.799,-3.262 0.304,-3.998 0.568,-0.36 1.064,-0.104 1.599,0.144 0.766,0.417 1.623,0.639 2.495,0.648 z"
       id="path20"
       inkscape:connector-curvature="0"
       style="fill:#68e1fd" />
    <path
       d="m 129.234,122.189 c 0.021,0.178 0.002,0.359 -0.056,0.528 -0.095,0.165 -0.234,0.3 -0.4,0.392 -0.524,0.361 -1.139,0.569 -1.775,0.6 -0.318,0.011 -0.634,-0.05 -0.924,-0.181 -0.289,-0.13 -0.545,-0.325 -0.747,-0.571 -0.294,-0.465 -0.473,-0.995 -0.52,-1.543 -0.234,-1.18 -0.349,-2.38 -0.344,-3.582 -0.014,-0.071 -0.012,-0.144 0.005,-0.214 0.017,-0.07 0.049,-0.135 0.094,-0.191 0.045,-0.057 0.102,-0.103 0.166,-0.135 0.064,-0.032 0.135,-0.05 0.207,-0.052 0.992,-0.208 2.967,-0.727 3.47,0.488 0.513,1.433 0.792,2.94 0.824,4.461 z"
       id="path22"
       inkscape:connector-curvature="0"
       style="fill:#fbc4d6" />
    <path
       d="m 133.431,122.069 c 0.852,0.046 1.694,0.208 2.503,0.48 0.402,0.139 0.771,0.359 1.084,0.647 0.314,0.287 0.565,0.636 0.739,1.024 0.161,0.381 0.181,0.806 0.056,1.2 -0.276,0.584 -0.761,1.043 -1.36,1.287 -2.841,1.51 -6.047,2.2 -9.258,1.991 -0.824,0.033 -1.629,-0.253 -2.247,-0.8 -0.446,-0.66 -0.655,-1.452 -0.592,-2.246 l -0.112,-3.758 c 0.724,0.032 1.43,0.232 2.063,0.583 1.183,0.4 1.647,-0.559 2.623,-0.799 1.271,-0.296 3.206,0.264 4.501,0.391 z"
       id="path24"
       inkscape:connector-curvature="0"
       style="fill:#68e1fd" />
    <path
       d="m 117.792,112.747 c 0.268,-0.037 0.542,-0.013 0.799,0.071 0.176,0.098 0.329,0.231 0.448,0.392 l 2.759,3.095 c 0.535,0.599 1.095,1.423 0.719,2.134 -0.132,0.198 -0.307,0.364 -0.512,0.486 -0.205,0.122 -0.434,0.196 -0.671,0.218 -1.336,0.122 -2.679,-0.141 -3.87,-0.76 -0.848,-0.367 -1.687,-0.799 -2.511,-1.199 -0.612,-0.278 -1.147,-0.7 -1.559,-1.231 -0.631,-0.96 -0.799,-3.262 0.304,-3.998 0.568,-0.36 1.064,-0.104 1.599,0.144 0.766,0.417 1.623,0.639 2.495,0.648 z"
       id="path26"
       inkscape:connector-curvature="0"
       style="fill:url(#paint4_linear)" />
    <path
       d="m 133.431,122.069 c 0.852,0.046 1.694,0.208 2.503,0.48 0.402,0.139 0.771,0.359 1.084,0.647 0.314,0.287 0.565,0.636 0.739,1.024 0.161,0.381 0.181,0.806 0.056,1.2 -0.276,0.584 -0.761,1.043 -1.36,1.287 -2.841,1.51 -6.047,2.2 -9.258,1.991 -0.824,0.033 -1.629,-0.253 -2.247,-0.8 -0.446,-0.66 -0.655,-1.452 -0.592,-2.246 l -0.112,-3.758 c 0.724,0.032 1.43,0.232 2.063,0.583 1.183,0.4 1.647,-0.559 2.623,-0.799 1.271,-0.296 3.206,0.264 4.501,0.391 z"
       id="path28"
       inkscape:connector-curvature="0"
       style="fill:url(#paint5_linear)" />
    <path
       d="m 87.8797,81.3557 c -1.7199,-0.1493 -3.4506,-0.1225 -5.1651,0.08 -0.2242,0.0115 -0.4417,0.0803 -0.6317,0.1999 -0.1092,0.1029 -0.1967,0.2267 -0.2571,0.364 -0.0604,0.1374 -0.0926,0.2855 -0.0947,0.4355 -0.2399,2.3188 1.5991,4.3337 3.5821,5.557 5.365,3.3262 12.1293,3.1983 18.0538,5.3731 0.566,0.1498 1.067,0.4778 1.432,0.9355 0.247,0.4959 0.367,1.0452 0.351,1.5991 0.264,3.1263 1.999,5.9412 2.575,9.0192 0.576,3.078 -0.04,6.3 0.432,9.403 1.943,-2.071 5.253,-2.399 7.196,-4.446 1.823,-1.887 2.183,-4.701 2.454,-7.308 l 0.736,-7.1479 c 0.136,-0.5155 0.08,-1.063 -0.158,-1.5399 -0.239,-0.4769 -0.643,-0.8505 -1.137,-1.0507 C 108.501,87.1766 98.2501,82.2512 87.8797,81.3557 Z"
       id="path30"
       inkscape:connector-curvature="0"
       style="fill:url(#paint6_linear)" />
    <path
       d="m 123.253,80.636 c 0.808,0.1621 1.557,0.5407 2.167,1.0954 0.625,0.8706 0.91,1.9402 0.8,3.0064 -0.019,7.5867 -1.454,15.1033 -4.23,22.1642 -0.026,0.248 -0.113,0.486 -0.252,0.693 -0.139,0.207 -0.327,0.377 -0.548,0.494 -0.22,0.118 -0.465,0.179 -0.715,0.18 -0.249,10e-4 -0.495,-0.06 -0.716,-0.176 -1.663,-0.449 -3.301,-0.982 -4.909,-1.599 l 2.175,-14.3923 c 0.103,-0.3994 0.081,-0.8211 -0.064,-1.2073 -0.161,-0.2739 -0.386,-0.5044 -0.656,-0.6716 -2.481,-1.8044 -5.101,-3.4086 -7.836,-4.7974 -2.183,-1.1034 -4.685,-2.3987 -5.277,-4.7334 -0.123,-0.399 -0.148,-0.8216 -0.072,-1.2322 0.075,-0.4105 0.248,-0.797 0.504,-1.1265 0.346,-0.3398 0.753,-0.6111 1.199,-0.7996 1.447,-0.7116 3.27,-1.5991 4.933,-1.4552 1.336,0.1359 1.847,0.9035 2.959,1.4712 3.086,1.5351 7.188,2.1108 10.538,3.0863 z"
       id="path32"
       inkscape:connector-curvature="0"
       style="fill:#282328" />
    <path
       d="m 108.397,57.7445 c 1.071,2.9504 1.599,6.0767 2.542,9.0591 0.207,0.7905 0.577,1.5287 1.088,2.1668 0.678,0.6505 1.5,1.1326 2.398,1.4072 1.253,0.4851 2.527,0.9088 3.822,1.2713 0.864,0.2319 1.895,0.6317 1.991,1.5112 0.021,0.2933 -0.04,0.5866 -0.176,0.8475 -0.334,0.5957 -0.815,1.0958 -1.397,1.4528 -0.582,0.3569 -1.246,0.5587 -1.929,0.5861 -1.362,0.0365 -2.719,-0.186 -3.998,-0.6556 -1.164,-0.2358 -2.233,-0.8118 -3.07,-1.6551 -0.476,-0.7014 -0.81,-1.4891 -0.983,-2.3188 -1.313,-4.6578 -3.133,-9.1571 -5.43,-13.4166 -0.686,-1.1249 -1.224,-2.3344 -1.599,-3.5981 -0.527,-2.2068 -0.535,-7.4359 1.743,-5.517 1.839,1.5512 4.19,6.6684 4.998,8.8592 z"
       id="path34"
       inkscape:connector-curvature="0"
       style="fill:#fbc4d6" />
    <path
       d="m 99.6736,80.3562 c 1.3484,-0.5224 2.6594,-1.1341 3.9264,-1.831 4.797,-2.6546 0.871,-3.9579 -0.728,-7.1481 -1.143,-2.2628 -0.68,-4.9733 -0.088,-7.428 1.047,-4.3176 2.447,-8.7952 1.439,-13.1048 -0.126,-0.6995 -0.398,-1.3643 -0.799,-1.951 -0.294,-0.3639 -0.632,-0.689 -1.008,-0.9674 -1.013,-0.8749 -2.178,-1.5552 -3.438,-2.0069 -2.3987,-0.7996 -5.1172,-0.2159 -7.3959,0.9274 -8.9552,4.4936 -10.8661,15.8394 -10.5063,24.9145 0.0959,2.5186 0.4877,5.1811 2.1108,7.1081 1.6232,1.9269 3.9179,2.6625 6.2686,2.9504 3.4746,0.3551 6.9832,-0.1473 10.2184,-1.4632 z"
       id="path36"
       inkscape:connector-curvature="0"
       style="fill:#ffffff" />
    <path
       d="m 86.3211,75.223 c 0.0722,0.8518 0.3463,1.674 0.7996,2.3987 0.7995,1.1274 2.2707,1.5432 3.622,1.871 l 6.0847,1.5032 c 0.7415,0.2248 1.5118,0.3406 2.2867,0.3438 1.6629,-0.0799 3.0939,-1.1434 4.4139,-2.1668 0.337,-0.2307 0.629,-0.5205 0.863,-0.8555 -3.358,-0.3199 -6.7081,-0.6557 -10.0503,-1.1434 -1.9669,-0.2879 -4.0458,-0.6876 -5.493,-2.0389 -0.7476,-0.7386 -1.3165,-1.6384 -1.6631,-2.6306 -0.2398,-0.6156 -0.3518,-2.1828 -1.0474,-2.3187 -0.1752,1.6794 -0.1133,3.3751 0.1839,5.0372 z"
       id="path38"
       inkscape:connector-curvature="0"
       style="fill:url(#paint7_linear)" />
    <path
       d="m 98.3301,52.9472 c -6e-4,0.2521 -0.1013,0.4937 -0.2799,0.6716 -0.1662,0.0979 -0.3604,0.1373 -0.5517,0.112 -0.6265,-0.0294 -1.2395,-0.1927 -1.7977,-0.479 -0.5581,-0.2862 -1.0484,-0.6888 -1.4379,-1.1805 -0.3894,-0.4917 -0.6689,-1.0612 -0.8197,-1.6701 -0.1508,-0.6089 -0.1694,-1.243 -0.0544,-1.8596 0.1439,-0.7996 0.4877,-1.4872 0.7036,-2.2388 0.4238,-1.5032 0.3518,-3.1982 1.3033,-4.4376 0.8238,1.8848 1.7637,3.7167 2.8145,5.485 0.2685,0.3517 0.4553,0.7588 0.5465,1.1917 0.0913,0.433 0.0849,0.8808 -0.0188,1.311 z"
       id="path40"
       inkscape:connector-curvature="0"
       style="fill:#fbc4d6" />
    <path
       d="m 98.8024,49.0772 -0.3598,2.3987 c 0,0 -4.1177,-2.0389 -3.582,-5.8208 0.5357,-3.7819 3.9418,3.4221 3.9418,3.4221 z"
       id="path42"
       inkscape:connector-curvature="0"
       style="fill:url(#paint8_linear)" />
    <path
       d="m 103.616,46.7424 c -0.212,0.7684 -0.659,1.451 -1.28,1.9509 -0.296,0.2007 -0.627,0.3444 -0.975,0.4238 -1.225,0.2376 -2.4927,0.0816 -3.623,-0.4455 -1.1303,-0.527 -2.0648,-1.3983 -2.6698,-2.4889 -0.5702,-1.1047 -0.8954,-2.3195 -0.9533,-3.5614 -0.058,-1.2418 0.1526,-2.4816 0.6175,-3.6347 0.3805,-1.2646 1.2417,-2.3296 2.3987,-2.9663 0.6325,-0.2495 1.317,-0.3384 1.9923,-0.2589 0.6752,0.0795 1.3206,0.3251 1.8776,0.7146 1.515,1.0575 2.685,2.5366 3.366,4.2537 0.584,1.751 -0.152,4.3416 -0.751,6.0127 z"
       id="path44"
       inkscape:connector-curvature="0"
       style="fill:#fbc4d6" />
    <path
       d="m 121.694,90.6866 c 1.025,1.305 1.834,2.7652 2.399,4.3256 3.144,7.5828 5.188,15.5768 6.068,23.7388 -2.567,0.32 -5.164,0.32 -7.731,0 -0.201,-5.762 -1.09,-11.479 -2.647,-17.03 -0.275,-1.195 -0.748,-2.3357 -1.399,-3.3746 -1.144,-1.6551 -3.023,-2.6146 -4.798,-3.5101 -4.153,-2.0183 -8.494,-3.6251 -12.961,-4.7974 -1.8865,-0.5197 -3.7895,-0.9994 -5.6445,-1.5991 -1.5591,-0.5277 -5.9328,-2.4627 -7.1961,-3.5101 -0.662,-0.5019 -1.2158,-1.1325 -1.628,-1.8539 -0.4122,-0.7213 -0.6743,-1.5186 -0.7707,-2.3438 0,0.4158 12.1854,1.2473 13.0569,1.1514 2.9344,-0.3119 6.3964,-1.9909 9.2914,-0.7996 2.262,0.9275 4.333,2.8625 6.396,4.1977 2.503,1.5672 5.557,3.0863 7.564,5.4051 z"
       id="path46"
       inkscape:connector-curvature="0"
       style="fill:#473f47" />
    <path
       d="m 108.341,90.0707 -14.8722,-7.268 17.4382,-7.396 14.88,6.5005 z"
       id="path48"
       inkscape:connector-curvature="0"
       style="fill:#68e1fd" />
    <path
       d="m 85.6889,55.9454 c 0,0.2798 -0.072,0.5517 -0.1039,0.7996 -0.4398,4.0937 -0.04,8.1075 0.1119,12.1773 0.0959,2.5186 0.4238,7.316 3.1023,8.6033 5.0053,2.3987 14.6638,1.4872 14.6638,1.4872 1.12,-0.1795 2.265,-0.1333 3.366,0.1359 0.6,0.1839 1.152,0.4958 1.735,0.7196 2.111,0.7996 4.47,0.3998 6.693,0 0.383,-0.0454 0.753,-0.1678 1.087,-0.3598 0.388,-0.3445 0.625,-0.8278 0.659,-1.3455 0.035,-0.5177 -0.136,-1.0281 -0.475,-1.421 -0.722,-0.7582 -1.66,-1.2748 -2.686,-1.4791 -2.807,-0.9163 -5.814,-1.0326 -8.684,-0.3359 -0.366,0.1236 -0.74,0.225 -1.119,0.3039 -0.444,0.072 -0.894,0.1041 -1.343,0.0959 h -3.4065 c -3.9179,0 -7.6119,0.048 -8.2035,-4.5335 -0.2185,-1.6968 -0.2614,-3.4116 -0.128,-5.1172 0.2319,-3.0783 1.0395,-6.1327 0.8715,-9.211 -0.0101,-0.9763 -0.2541,-1.9359 -0.7116,-2.7985 -0.2318,-0.4283 -0.5697,-0.7899 -0.9813,-1.0503 -0.4116,-0.2604 -0.8831,-0.4108 -1.3694,-0.4369 -0.5036,0.0376 -0.989,0.2046 -1.4092,0.4847 -0.4203,0.2802 -0.7611,0.664 -0.9895,1.1145 -0.3539,0.6759 -0.5841,1.4098 -0.6796,2.1668 z"
       id="path50"
       inkscape:connector-curvature="0"
       style="fill:#fbc4d6" />
    <path
       d="m 131.912,67.2434 -20.789,10.5782 -2.782,12.2494 17.446,-8.1636 z"
       id="path52"
       inkscape:connector-curvature="0"
       style="fill:#68e1fd" />
    <path
       d="m 104.639,42.3288 c -0.023,-0.7612 -0.305,-1.4918 -0.8,-2.0708 -0.251,-0.2915 -0.548,-0.54 -0.879,-0.7356 -0.464,-0.2719 -0.576,-0.2959 -0.88,0.1439 -0.392,0.5677 -0.519,1.2313 -0.879,1.823 -0.394,0.6562 -0.943,1.2054 -1.5994,1.5991 -0.7375,0.4576 -1.5954,0.6833 -2.4626,0.6477 -0.3445,-0.0521 -0.6949,-0.0521 -1.0395,0 -0.1157,0.0218 -0.2251,0.069 -0.3205,0.1381 -0.0954,0.0692 -0.1743,0.1585 -0.2311,0.2616 -0.0826,0.2991 -0.1123,0.6103 -0.088,0.9195 -0.072,0.7996 -0.8635,1.3673 -1.3033,2.0629 -0.4398,0.6956 -0.5677,1.7271 -1.0954,2.4707 -0.0979,0.1492 -0.2329,0.2704 -0.3918,0.3518 -0.3758,0.1599 -0.7995,-0.048 -1.1913,-0.12 -1.1594,-0.1999 -2.0949,0.8796 -3.0864,1.5352 -1.9909,1.3113 -4.5974,0.9755 -6.9482,0.5837 -0.7196,-0.0871 -1.4212,-0.2867 -2.0788,-0.5917 -0.7103,-0.4192 -1.341,-0.9605 -1.863,-1.5991 -0.8715,-0.9595 -1.7351,-1.935 -2.5906,-2.9104 -0.3179,-0.3123 -0.5707,-0.6847 -0.7436,-1.0954 -0.0915,-0.2865 -0.1161,-0.5901 -0.0719,-0.8876 0.078,-0.5552 0.2425,-1.0948 0.4877,-1.5991 0.6236,-1.3992 1.3513,-2.9184 2.7585,-3.55 1.4072,-0.6317 3.0703,-0.16 4.6215,-0.3199 0.1889,-4e-4 0.3732,-0.059 0.5277,-0.1679 0.1235,-0.1395 0.2113,-0.3068 0.2558,-0.4877 0.6477,-2.1508 1.4552,-4.4856 3.3902,-5.597 1.491,-0.7162 3.1718,-0.9375 4.7974,-0.6316 1.6095,0.3041 3.2516,0.3982 4.8853,0.2798 0.7996,-0.1279 1.5991,-0.3918 2.3987,-0.5517 1.8696,-0.4154 3.8266,-0.131 5.5006,0.7996 0.827,0.4916 1.518,1.1808 2.012,2.0056 0.494,0.8248 0.775,1.7594 0.819,2.7198 -0.032,0.3751 -0.032,0.7523 0,1.1274 0.056,0.3518 0.208,0.6956 0.264,1.0474 0.032,0.3041 0,0.6117 -0.094,0.9025 -0.095,0.2909 -0.25,0.5584 -0.455,0.7849 -0.206,0.2266 -0.457,0.4071 -0.737,0.5297 -0.28,0.1226 -0.583,0.1845 -0.889,0.1816 z"
       id="path54"
       inkscape:connector-curvature="0"
       style="fill:#ff681c" />
    <path
       d="m 84.9613,58.2164 c -0.2466,2.2628 -0.2733,4.5442 -0.08,6.8123 -0.0097,0.1968 0.0405,0.3919 0.1439,0.5596 0.17,0.1861 0.4044,0.3005 0.6557,0.3199 1.2949,0.241 2.6087,0.3668 3.9258,0.3758 0.1848,0.059 0.3804,0.0766 0.5728,0.0515 0.1924,-0.0252 0.3768,-0.0925 0.5402,-0.1971 0.1634,-0.1046 0.3017,-0.2439 0.4051,-0.4081 0.1034,-0.1642 0.1693,-0.3492 0.193,-0.5417 0.7196,-3.0064 1.4312,-6.0127 1.9749,-9.0591 0.2159,-1.2233 0.3678,-2.5986 -0.3678,-3.59 -1.0634,-1.4392 -3.9338,-1.5992 -5.3171,-0.5517 -1.6711,1.2873 -2.3827,4.2936 -2.6465,6.2286 z"
       id="path56"
       inkscape:connector-curvature="0"
       style="fill:#ffffff" />
    <path
       d="m 107.59,54.3783 2.262,5.421 c 0.112,0.2108 0.157,0.4508 0.128,0.6877 -0.057,0.1944 -0.168,0.3689 -0.32,0.5037 -1.105,1.1688 -2.417,2.123 -3.869,2.8145 -1.34,-1.1966 -2.427,-2.6481 -3.199,-4.2697 -0.751,-1.927 -0.583,-4.0698 -0.359,-6.1247 0.135,-1.3033 0.087,-5.493 2.302,-3.8699 1.543,1.1114 2.359,3.1663 3.055,4.8374 z"
       id="path58"
       inkscape:connector-curvature="0"
       style="fill:#ffffff" />
    <path
       d="m 66.6592,105.231 c 7e-4,0.739 -0.1492,1.47 -0.4406,2.149 -0.2915,0.679 -0.7183,1.292 -1.2545,1.801 -0.924,0.875 -2.1148,1.415 -3.3821,1.535 -0.2371,0.012 -0.4746,0.012 -0.7116,0 l -39.7144,-0.8 c -1.5246,-0.016 -2.9827,-0.627 -4.0639,-1.702 -1.0811,-1.075 -1.7,-2.53 -1.7249,-4.055 -7e-4,-0.739 0.1492,-1.47 0.4406,-2.149 0.2915,-0.679 0.7183,-1.292 1.2545,-1.801 0.5436,-0.5223 1.185,-0.9326 1.8875,-1.207 0.7025,-0.2744 1.4522,-0.4075 2.2062,-0.3917 h 1.3513 c -0.2833,-0.9824 -0.4259,-1.9999 -0.4238,-3.0223 -0.0027,-1.4573 0.2924,-2.8998 0.8671,-4.239 0.5747,-1.3391 1.417,-2.5468 2.4751,-3.5488 0.9323,-0.892 2.0151,-1.6121 3.1983,-2.1268 1.5317,-0.6684 3.1905,-0.9958 4.8613,-0.9595 l 3.3742,0.072 c 2.086,0.0388 4.1241,0.6326 5.9046,1.7202 1.7805,1.0877 3.2391,2.63 4.2258,4.4684 0.9756,-0.4553 2.042,-0.6822 3.1183,-0.6637 h 0.8716 c 1.8069,0.0227 3.5339,0.7483 4.8147,2.0231 1.2807,1.2748 2.0145,2.9984 2.0455,4.8052 v 0.3278 c 0.0032,0.6201 -0.0857,1.2371 -0.2638,1.831 l 3.2862,0.072 c 1.5439,0.0148 3.0195,0.6391 4.1052,1.7371 1.0858,1.097 1.6938,2.58 1.6916,4.124 z"
       id="path60"
       inkscape:connector-curvature="0"
       style="fill:#ffffff" />
    <path
       d="m 61.582,110.716 c -0.2371,0.012 -0.4746,0.012 -0.7116,0 l -39.7144,-0.8 c -1.5246,-0.017 -2.9827,-0.627 -4.0639,-1.703 -1.0811,-1.075 -1.7,-2.529 -1.7249,-4.054 -7e-4,-0.739 0.1492,-1.47 0.4406,-2.149 0.2915,-0.68 0.7183,-1.292 1.2545,-1.801 -1.5592,9.803 8.6752,8.404 8.6752,8.404 h 25.802 z"
       id="path62"
       inkscape:connector-curvature="0"
       style="fill:url(#paint9_linear)" />
    <path
       d="m 25.3862,99.7936 -2.8784,-1.0954 c -0.2833,-0.9824 -0.426,-2 -0.4238,-3.0224 -0.0027,-1.4573 0.2924,-2.8997 0.8671,-4.2389 0.5747,-1.3392 1.417,-2.5468 2.4751,-3.5488 0.9323,-0.8921 2.0151,-1.6121 3.1982,-2.1269 -7.9716,6.8443 -3.2382,14.0324 -3.2382,14.0324 z"
       id="path64"
       inkscape:connector-curvature="0"
       style="fill:url(#paint10_linear)" />
    <path
       d="m 171.418,58.7599 c 0.001,0.7398 -0.15,1.4718 -0.443,2.1511 -0.293,0.6793 -0.722,1.2914 -1.26,1.7988 -0.927,0.8755 -2.121,1.4159 -3.39,1.5351 -0.237,0.0203 -0.475,0.0203 -0.712,0 l -39.706,-0.7995 c -1.512,-0.0202 -2.957,-0.6254 -4.032,-1.6884 -1.075,-1.063 -1.696,-2.5012 -1.733,-4.0125 -0.008,-0.7465 0.137,-1.4867 0.427,-2.1745 0.291,-0.6878 0.719,-1.3085 1.26,-1.8233 1.106,-1.048 2.578,-1.6219 4.102,-1.5992 h 1.343 c -0.279,-0.9804 -0.422,-1.9948 -0.424,-3.0143 -0.002,-1.4572 0.293,-2.8996 0.868,-4.2387 0.575,-1.3391 1.417,-2.5468 2.474,-3.5491 0.933,-0.8938 2.016,-1.6165 3.199,-2.1348 1.531,-0.6691 3.19,-0.9965 4.861,-0.9595 l 3.374,0.072 c 2.086,0.0385 4.124,0.6331 5.904,1.7224 1.779,1.0894 3.236,2.6339 4.219,4.4742 0.973,-0.4619 2.041,-0.6892 3.118,-0.6636 h 0.872 c 1.807,0.0184 3.536,0.7414 4.819,2.0152 1.283,1.2737 2.018,2.9976 2.049,4.805 v 0.3279 c -0.001,0.6229 -0.092,1.2425 -0.272,1.839 l 3.286,0.0639 c 1.541,0.0189 3.013,0.6434 4.098,1.7385 1.085,1.0951 1.695,2.573 1.699,4.1143 z"
       id="path66"
       inkscape:connector-curvature="0"
       style="fill:#ffffff" />
    <path
       d="m 166.333,64.2449 c -0.237,0.0203 -0.475,0.0203 -0.712,0 l -39.706,-0.7996 c -1.513,-0.0182 -2.96,-0.6224 -4.037,-1.6856 -1.077,-1.0633 -1.699,-2.5026 -1.736,-4.0153 -0.008,-0.7465 0.137,-1.4867 0.427,-2.1745 0.291,-0.6878 0.719,-1.3085 1.26,-1.8233 -1.599,9.8106 8.675,8.4034 8.675,8.4034 h 25.802 z"
       id="path68"
       inkscape:connector-curvature="0"
       style="fill:url(#paint11_linear)" />
    <path
       d="m 130.145,53.3229 -2.886,-1.0954 c -0.28,-0.9805 -0.422,-1.9949 -0.424,-3.0144 -0.002,-1.4572 0.293,-2.8995 0.868,-4.2386 0.574,-1.3391 1.416,-2.5468 2.474,-3.5491 0.933,-0.8939 2.015,-1.6165 3.198,-2.1349 -7.963,6.8443 -3.23,14.0324 -3.23,14.0324 z"
       id="path70"
       inkscape:connector-curvature="0"
       style="fill:url(#paint12_linear)" />
    <path
       d="m 96.1555,43.7522 c -0.1157,0.0218 -0.2252,0.069 -0.3205,0.1381 -0.0954,0.0692 -0.1743,0.1585 -0.2312,0.2616 -0.0825,0.2991 -0.1122,0.6103 -0.0879,0.9195 -0.072,0.7996 -0.8636,1.3673 -1.3033,2.0629 -0.4398,0.6956 -0.5677,1.7271 -1.0954,2.4707 -0.098,0.1492 -0.233,0.2704 -0.3918,0.3518 -0.3758,0.1599 -0.7996,-0.048 -1.1914,-0.12 -1.1593,-0.1998 -2.0948,0.8796 -3.0863,1.5352 -1.9909,1.3113 -4.5975,0.9755 -6.9482,0.5837 -0.7397,-0.0863 -1.4606,-0.2915 -2.1348,-0.6077 -0.7103,-0.4192 -1.341,-0.9605 -1.863,-1.5991 -0.8715,-0.9595 -1.7351,-1.935 -2.5906,-2.9104 -0.3179,-0.3123 -0.5707,-0.6847 -0.7436,-1.0954 -0.0915,-0.2865 -0.1161,-0.5901 -0.0719,-0.8875 0.3728,-0.2252 0.7601,-0.4255 1.1593,-0.5997 1.2257,-0.6578 2.6585,-0.8154 3.9978,-0.4398 1.0715,0.4158 1.831,1.3673 2.7505,2.0469 1.2824,0.8978 2.8422,1.3104 4.4007,1.1639 1.5585,-0.1465 3.0141,-0.8424 4.1067,-1.9635 0.4029,-0.5308 0.8764,-1.0042 1.4072,-1.4072 0.9515,-0.5197 2.8865,-0.4397 4.2377,0.096 z"
       id="path72"
       inkscape:connector-curvature="0"
       style="fill:url(#paint13_linear)" />
  </g>
  <defs
     id="defs205">
    <linearGradient
       id="paint0_linear"
       x1="147.623"
       y1="142.57001"
       x2="144.00101"
       y2="95.9077"
       gradientUnits="userSpaceOnUse">
      <stop
         offset="0.01"
         id="stop76" />
      <stop
         offset="0.13"
         stop-opacity="0.69"
         id="stop78" />
      <stop
         offset="0.25"
         stop-opacity="0.32"
         id="stop80" />
      <stop
         offset="1"
         stop-opacity="0"
         id="stop82" />
    </linearGradient>
    <linearGradient
       id="paint1_linear"
       x1="1185.12"
       y1="2214.04"
       x2="1573.66"
       y2="2129.78"
       gradientUnits="userSpaceOnUse">
      <stop
         offset="0.01"
         id="stop85" />
      <stop
         offset="0.13"
         stop-opacity="0.69"
         id="stop87" />
      <stop
         offset="0.25"
         stop-opacity="0.32"
         id="stop89" />
      <stop
         offset="1"
         stop-opacity="0"
         id="stop91" />
    </linearGradient>
    <linearGradient
       id="paint2_linear"
       x1="4708.3398"
       y1="24391.4"
       x2="-31.583099"
       y2="-9857.9404"
       gradientUnits="userSpaceOnUse">
      <stop
         offset="0.01"
         id="stop94" />
      <stop
         offset="0.13"
         stop-opacity="0.69"
         id="stop96" />
      <stop
         offset="0.25"
         stop-opacity="0.32"
         id="stop98" />
      <stop
         offset="1"
         stop-opacity="0"
         id="stop100" />
    </linearGradient>
    <linearGradient
       id="paint3_linear"
       x1="8673.2803"
       y1="17615.4"
       x2="6576.1001"
       y2="-7718.9399"
       gradientUnits="userSpaceOnUse">
      <stop
         offset="0.01"
         id="stop103" />
      <stop
         offset="0.13"
         stop-opacity="0.69"
         id="stop105" />
      <stop
         offset="0.25"
         stop-opacity="0.32"
         id="stop107" />
      <stop
         offset="1"
         stop-opacity="0"
         id="stop109" />
    </linearGradient>
    <linearGradient
       id="paint4_linear"
       x1="-8553.2695"
       y1="1188.28"
       x2="-8717.04"
       y2="1295.34"
       gradientUnits="userSpaceOnUse">
      <stop
         offset="0.01"
         id="stop112" />
      <stop
         offset="0.13"
         stop-opacity="0.69"
         id="stop114" />
      <stop
         offset="0.25"
         stop-opacity="0.32"
         id="stop116" />
      <stop
         offset="1"
         stop-opacity="0"
         id="stop118" />
    </linearGradient>
    <linearGradient
       id="paint5_linear"
       x1="-12080.8"
       y1="1339.92"
       x2="-12128.2"
       y2="1136.01"
       gradientUnits="userSpaceOnUse">
      <stop
         offset="0.01"
         id="stop121" />
      <stop
         offset="0.13"
         stop-opacity="0.69"
         id="stop123" />
      <stop
         offset="0.25"
         stop-opacity="0.32"
         id="stop125" />
      <stop
         offset="1"
         stop-opacity="0"
         id="stop127" />
    </linearGradient>
    <linearGradient
       id="paint6_linear"
       x1="-34555.102"
       y1="2940.05"
       x2="-36805"
       y2="6421.02"
       gradientUnits="userSpaceOnUse">
      <stop
         offset="0.01"
         id="stop130" />
      <stop
         offset="0.13"
         stop-opacity="0.69"
         id="stop132" />
      <stop
         offset="0.25"
         stop-opacity="0.32"
         id="stop134" />
      <stop
         offset="1"
         stop-opacity="0"
         id="stop136" />
    </linearGradient>
    <linearGradient
       id="paint7_linear"
       x1="2925.8899"
       y1="922.56897"
       x2="2556.77"
       y2="1807.1899"
       gradientUnits="userSpaceOnUse">
      <stop
         offset="0.01"
         id="stop139" />
      <stop
         offset="0.13"
         stop-opacity="0.69"
         id="stop141" />
      <stop
         offset="0.25"
         stop-opacity="0.32"
         id="stop143" />
      <stop
         offset="1"
         stop-opacity="0"
         id="stop145" />
    </linearGradient>
    <linearGradient
       id="paint8_linear"
       x1="-3149.97"
       y1="435.24799"
       x2="-3231.7"
       y2="538.24402"
       gradientUnits="userSpaceOnUse">
      <stop
         offset="0.01"
         id="stop148" />
      <stop
         offset="0.13"
         stop-opacity="0.69"
         id="stop150" />
      <stop
         offset="0.25"
         stop-opacity="0.32"
         id="stop152" />
      <stop
         offset="1"
         stop-opacity="0"
         id="stop154" />
    </linearGradient>
    <linearGradient
       id="paint9_linear"
       x1="3338.21"
       y1="1830.52"
       x2="3327.29"
       y2="1213.21"
       gradientUnits="userSpaceOnUse">
      <stop
         offset="0.01"
         id="stop157" />
      <stop
         offset="0.13"
         stop-opacity="0.69"
         id="stop159" />
      <stop
         offset="0.25"
         stop-opacity="0.32"
         id="stop161" />
      <stop
         offset="1"
         stop-opacity="0"
         id="stop163" />
    </linearGradient>
    <linearGradient
       id="paint10_linear"
       x1="198.022"
       y1="1953.75"
       x2="586.57202"
       y2="1869.54"
       gradientUnits="userSpaceOnUse">
      <stop
         offset="0.01"
         id="stop166" />
      <stop
         offset="0.13"
         stop-opacity="0.69"
         id="stop168" />
      <stop
         offset="0.25"
         stop-opacity="0.32"
         id="stop170" />
      <stop
         offset="1"
         stop-opacity="0"
         id="stop172" />
    </linearGradient>
    <linearGradient
       id="paint11_linear"
       x1="9493.25"
       y1="1172.7"
       x2="9482.3203"
       y2="555.61102"
       gradientUnits="userSpaceOnUse">
      <stop
         offset="0.01"
         id="stop175" />
      <stop
         offset="0.13"
         stop-opacity="0.69"
         id="stop177" />
      <stop
         offset="0.25"
         stop-opacity="0.32"
         id="stop179" />
      <stop
         offset="1"
         stop-opacity="0"
         id="stop181" />
    </linearGradient>
    <linearGradient
       id="paint12_linear"
       x1="1159.7"
       y1="1091.86"
       x2="1548.24"
       y2="1007.6"
       gradientUnits="userSpaceOnUse">
      <stop
         offset="0.01"
         id="stop184" />
      <stop
         offset="0.13"
         stop-opacity="0.69"
         id="stop186" />
      <stop
         offset="0.25"
         stop-opacity="0.32"
         id="stop188" />
      <stop
         offset="1"
         stop-opacity="0"
         id="stop190" />
    </linearGradient>
    <linearGradient
       id="paint13_linear"
       x1="3471.9399"
       y1="766.84003"
       x2="3013.26"
       y2="-91.156403"
       gradientUnits="userSpaceOnUse">
      <stop
         offset="0.01"
         id="stop193" />
      <stop
         offset="0.13"
         stop-opacity="0.69"
         id="stop195" />
      <stop
         offset="0.25"
         stop-opacity="0.32"
         id="stop197" />
      <stop
         offset="1"
         stop-opacity="0"
         id="stop199" />
    </linearGradient>
    <clipPath
       id="clip0">
      <rect
         width="220"
         height="184.23599"
         id="rect202"
         x="0"
         y="0"
         style="fill:#ffffff" />
    </clipPath>
  </defs>
</svg>
