<?xml version="1.0" encoding="UTF-8" standalone="no"?>
<svg
   xmlns:dc="http://purl.org/dc/elements/1.1/"
   xmlns:cc="http://creativecommons.org/ns#"
   xmlns:rdf="http://www.w3.org/1999/02/22-rdf-syntax-ns#"
   xmlns:svg="http://www.w3.org/2000/svg"
   xmlns="http://www.w3.org/2000/svg"
   xmlns:sodipodi="http://sodipodi.sourceforge.net/DTD/sodipodi-0.dtd"
   xmlns:inkscape="http://www.inkscape.org/namespaces/inkscape"
   id="a48982f8-6f90-42ca-afb3-d8e4a7a73152"
   data-name="Layer 1"
   width="730.53265"
   height="600"
   viewBox="0 0 730.53264 599.99997"
   version="1.1"
   sodipodi:docname="undraw_product_iteration_kjok.svg"
   inkscape:version="0.92.3 (2405546, 2018-03-11)">
  <metadata
     id="metadata81">
    <rdf:RDF>
      <cc:Work
         rdf:about="">
        <dc:format>image/svg+xml</dc:format>
        <dc:type
           rdf:resource="http://purl.org/dc/dcmitype/StillImage" />
        <dc:title></dc:title>
      </cc:Work>
    </rdf:RDF>
  </metadata>
  <defs
     id="defs79">
    <clipPath
       id="clip0">
      <rect
         style="fill:#ffffff"
         y="0"
         x="0"
         width="220"
         height="184.23599"
         id="rect202" />
    </clipPath>
    <linearGradient
       id="paint0_linear"
       x1="147.623"
       y1="142.57001"
       x2="144.00101"
       y2="95.9077"
       gradientUnits="userSpaceOnUse">
      <stop
         offset="0.01"
         id="stop76" />
      <stop
         offset="0.13"
         stop-opacity="0.69"
         id="stop78" />
      <stop
         offset="0.25"
         stop-opacity="0.32"
         id="stop80" />
      <stop
         offset="1"
         stop-opacity="0"
         id="stop82" />
    </linearGradient>
    <linearGradient
       id="paint1_linear"
       x1="1185.12"
       y1="2214.04"
       x2="1573.66"
       y2="2129.78"
       gradientUnits="userSpaceOnUse">
      <stop
         offset="0.01"
         id="stop85" />
      <stop
         offset="0.13"
         stop-opacity="0.69"
         id="stop87" />
      <stop
         offset="0.25"
         stop-opacity="0.32"
         id="stop89" />
      <stop
         offset="1"
         stop-opacity="0"
         id="stop91" />
    </linearGradient>
    <linearGradient
       id="paint2_linear"
       x1="4708.3398"
       y1="24391.4"
       x2="-31.583099"
       y2="-9857.9404"
       gradientUnits="userSpaceOnUse">
      <stop
         offset="0.01"
         id="stop94" />
      <stop
         offset="0.13"
         stop-opacity="0.69"
         id="stop96" />
      <stop
         offset="0.25"
         stop-opacity="0.32"
         id="stop98" />
      <stop
         offset="1"
         stop-opacity="0"
         id="stop100" />
    </linearGradient>
    <linearGradient
       id="paint3_linear"
       x1="8673.2803"
       y1="17615.4"
       x2="6576.1001"
       y2="-7718.9399"
       gradientUnits="userSpaceOnUse">
      <stop
         offset="0.01"
         id="stop103" />
      <stop
         offset="0.13"
         stop-opacity="0.69"
         id="stop105" />
      <stop
         offset="0.25"
         stop-opacity="0.32"
         id="stop107" />
      <stop
         offset="1"
         stop-opacity="0"
         id="stop109" />
    </linearGradient>
    <linearGradient
       id="paint4_linear"
       x1="-8553.2695"
       y1="1188.28"
       x2="-8717.04"
       y2="1295.34"
       gradientUnits="userSpaceOnUse">
      <stop
         offset="0.01"
         id="stop112" />
      <stop
         offset="0.13"
         stop-opacity="0.69"
         id="stop114" />
      <stop
         offset="0.25"
         stop-opacity="0.32"
         id="stop116" />
      <stop
         offset="1"
         stop-opacity="0"
         id="stop118" />
    </linearGradient>
    <linearGradient
       id="paint5_linear"
       x1="-12080.8"
       y1="1339.92"
       x2="-12128.2"
       y2="1136.01"
       gradientUnits="userSpaceOnUse">
      <stop
         offset="0.01"
         id="stop121" />
      <stop
         offset="0.13"
         stop-opacity="0.69"
         id="stop123" />
      <stop
         offset="0.25"
         stop-opacity="0.32"
         id="stop125" />
      <stop
         offset="1"
         stop-opacity="0"
         id="stop127" />
    </linearGradient>
    <linearGradient
       id="paint6_linear"
       x1="-34555.102"
       y1="2940.05"
       x2="-36805"
       y2="6421.02"
       gradientUnits="userSpaceOnUse">
      <stop
         offset="0.01"
         id="stop130" />
      <stop
         offset="0.13"
         stop-opacity="0.69"
         id="stop132" />
      <stop
         offset="0.25"
         stop-opacity="0.32"
         id="stop134" />
      <stop
         offset="1"
         stop-opacity="0"
         id="stop136" />
    </linearGradient>
    <linearGradient
       id="paint7_linear"
       x1="2925.8899"
       y1="922.56897"
       x2="2556.77"
       y2="1807.1899"
       gradientUnits="userSpaceOnUse">
      <stop
         offset="0.01"
         id="stop139" />
      <stop
         offset="0.13"
         stop-opacity="0.69"
         id="stop141" />
      <stop
         offset="0.25"
         stop-opacity="0.32"
         id="stop143" />
      <stop
         offset="1"
         stop-opacity="0"
         id="stop145" />
    </linearGradient>
    <linearGradient
       id="paint8_linear"
       x1="-3149.97"
       y1="435.24799"
       x2="-3231.7"
       y2="538.24402"
       gradientUnits="userSpaceOnUse">
      <stop
         offset="0.01"
         id="stop148" />
      <stop
         offset="0.13"
         stop-opacity="0.69"
         id="stop150" />
      <stop
         offset="0.25"
         stop-opacity="0.32"
         id="stop152" />
      <stop
         offset="1"
         stop-opacity="0"
         id="stop154" />
    </linearGradient>
    <linearGradient
       id="paint9_linear"
       x1="3338.21"
       y1="1830.52"
       x2="3327.29"
       y2="1213.21"
       gradientUnits="userSpaceOnUse">
      <stop
         offset="0.01"
         id="stop157" />
      <stop
         offset="0.13"
         stop-opacity="0.69"
         id="stop159" />
      <stop
         offset="0.25"
         stop-opacity="0.32"
         id="stop161" />
      <stop
         offset="1"
         stop-opacity="0"
         id="stop163" />
    </linearGradient>
    <linearGradient
       id="paint10_linear"
       x1="198.022"
       y1="1953.75"
       x2="586.57202"
       y2="1869.54"
       gradientUnits="userSpaceOnUse">
      <stop
         offset="0.01"
         id="stop166" />
      <stop
         offset="0.13"
         stop-opacity="0.69"
         id="stop168" />
      <stop
         offset="0.25"
         stop-opacity="0.32"
         id="stop170" />
      <stop
         offset="1"
         stop-opacity="0"
         id="stop172" />
    </linearGradient>
    <linearGradient
       id="paint11_linear"
       x1="9493.25"
       y1="1172.7"
       x2="9482.3203"
       y2="555.61102"
       gradientUnits="userSpaceOnUse">
      <stop
         offset="0.01"
         id="stop175" />
      <stop
         offset="0.13"
         stop-opacity="0.69"
         id="stop177" />
      <stop
         offset="0.25"
         stop-opacity="0.32"
         id="stop179" />
      <stop
         offset="1"
         stop-opacity="0"
         id="stop181" />
    </linearGradient>
    <linearGradient
       id="paint12_linear"
       x1="1159.7"
       y1="1091.86"
       x2="1548.24"
       y2="1007.6"
       gradientUnits="userSpaceOnUse">
      <stop
         offset="0.01"
         id="stop184" />
      <stop
         offset="0.13"
         stop-opacity="0.69"
         id="stop186" />
      <stop
         offset="0.25"
         stop-opacity="0.32"
         id="stop188" />
      <stop
         offset="1"
         stop-opacity="0"
         id="stop190" />
    </linearGradient>
    <linearGradient
       id="paint13_linear"
       x1="3471.9399"
       y1="766.84003"
       x2="3013.26"
       y2="-91.156403"
       gradientUnits="userSpaceOnUse">
      <stop
         offset="0.01"
         id="stop193" />
      <stop
         offset="0.13"
         stop-opacity="0.69"
         id="stop195" />
      <stop
         offset="0.25"
         stop-opacity="0.32"
         id="stop197" />
      <stop
         offset="1"
         stop-opacity="0"
         id="stop199" />
    </linearGradient>
    <clipPath
       id="clip0-1">
      <rect
         width="318.66299"
         height="200"
         transform="translate(0.623047,0.689941)"
         id="rect62"
         x="0"
         y="0"
         style="fill:#ffffff" />
    </clipPath>
  </defs>
  <sodipodi:namedview
     pagecolor="#ffffff"
     bordercolor="#666666"
     borderopacity="1"
     objecttolerance="10"
     gridtolerance="10"
     guidetolerance="10"
     inkscape:pageopacity="0"
     inkscape:pageshadow="2"
     inkscape:window-width="1920"
     inkscape:window-height="1001"
     id="namedview77"
     showgrid="false"
     inkscape:zoom="0.38786078"
     inkscape:cx="733.84631"
     inkscape:cy="538.13291"
     inkscape:window-x="-9"
     inkscape:window-y="-9"
     inkscape:window-maximized="1"
     inkscape:current-layer="a48982f8-6f90-42ca-afb3-d8e4a7a73152"
     fit-margin-top="0"
     fit-margin-left="0"
     fit-margin-right="0"
     fit-margin-bottom="0" />
  <g
     id="g1277"
     transform="scale(0.98608669)">
    <path
       id="path2"
       transform="translate(-229.5799,-145.76713)"
       d="m 970.41984,735.63 c 0.22635,23.70551 -149.15407,25.87775 -151.9995,0.002 -0.22634,-23.70395 149.1541,-25.87619 151.9995,-0.002 z"
       inkscape:connector-curvature="0"
       style="fill:#e6e6e6" />
    <polygon
       id="polygon4"
       points="637.086,524.726 623.966,507.569 612.864,513.624 619.929,536.837 631.03,537.846 "
       style="fill:#9f616a" />
    <polygon
       id="polygon6"
       points="658.28,565.095 675.437,564.086 675.198,554.943 658.28,553.994 "
       style="fill:#9f616a" />
    <polygon
       id="polygon8"
       points="675.437,557.021 665.345,469.217 669.382,388.478 619.929,374.348 625.984,450.042 645.16,561.058 "
       style="fill:#2f2e41" />
    <path
       id="path10"
       transform="translate(-229.5799,-145.76713)"
       d="m 930.24821,463.59817 -72.6656,1.00922 -8.074,55.50842 49.453,23.21265 12.11093,44.40673 -61.56385,65.60081 24.22187,30.27735 c 0,0 34.31431,-46.42523 59.54542,-72.66559 25.23111,-26.24036 13.12018,-105.97064 13.12018,-105.97064 z"
       inkscape:connector-curvature="0"
       style="fill:#2f2e41" />
    <circle
       id="circle12"
       r="22.203369"
       cy="152.31487"
       cx="657.27081"
       style="fill:#9f616a" />
    <path
       id="path14"
       transform="translate(-229.5799,-145.76713)"
       d="M 878.77677,313.22067 V 335.424 l 15.13868,24.22186 c 0,0 23.21261,-17.15714 18.16639,-21.19412 -5.04622,-4.03698 -6.05546,-35.32355 -6.05546,-35.32355 z"
       inkscape:connector-curvature="0"
       style="fill:#9f616a" />
    <polygon
       id="polygon16"
       points="634.058,203.786 640.114,329.941 687.548,328.932 695.622,218.925 685.53,190.666 678.607,181.247 666.354,199.749 649.197,185.62 "
       style="fill:#d0cde1" />
    <path
       id="path18"
       transform="translate(-229.5799,-145.76713)"
       d="m 854.55487,396.988 -11.10169,42.38828 11.10169,42.38824 -18.1664,24.22186 -16.1479,-76.70257 c 0,0 12.111,-62.57309 13.12019,-69.63785 1.00919,-7.06476 3.02772,-8.074 3.02772,-8.074 l 8.074,1.00925 z"
       inkscape:connector-curvature="0"
       style="fill:#2f2e41" />
    <polygon
       id="polygon20"
       points="712.779,280.489 714.798,302.692 710.761,327.923 724.89,351.136 739.019,287.553 723.881,205.804 717.825,205.804 705.714,267.368 "
       style="fill:#2f2e41" />
    <path
       id="path22"
       transform="translate(-229.5799,-145.76713)"
       d="m 849.50868,652.32681 c 0,0 -14.12937,4.037 -19.17565,5.0462 -5.04628,1.0092 3.02773,20.18488 3.02773,20.18488 0,0 5.0462,26.24035 6.05546,31.28656 1.00926,5.04621 8.074,22.20343 17.15717,24.22186 9.08317,2.01843 3.02773,-35.32355 3.02773,-35.32355 0,0 4.037,-12.1109 4.037,-16.14789 0,-4.03699 -6.05547,-2.01849 -6.05547,-2.01849 -16.1479,-2.01849 -8.07397,-27.24957 -8.07397,-27.24957 z"
       inkscape:connector-curvature="0"
       style="fill:#2f2e41" />
    <path
       id="path24"
       transform="translate(-229.5799,-145.76713)"
       d="m 882.81379,730.03854 c 1.00925,6.05548 -1.00926,6.05548 15.13867,8.074 16.14793,2.01852 12.11094,-11.10168 12.11094,-11.10168 a 84.8005,84.8005 0 0 0 -4.037,-18.16638 c -3.02774,-8.074 -19.17564,2.01849 -19.17564,2.01849 0,0 -5.04621,13.12009 -4.03697,19.17557 z"
       inkscape:connector-curvature="0"
       style="fill:#2f2e41" />
    <path
       id="path26"
       transform="translate(-229.5799,-145.76713)"
       d="m 906.05267,303.83306 0.526,8.97562 c 0,0 6.51241,-14.72671 7.52165,-29.86536 1.00924,-15.13865 -16.14792,-18.16638 -26.24032,-19.17562 -10.0924,-1.00924 -27.24959,6.05545 -27.24959,14.12942 0,8.07397 18.16639,6.05548 25.23111,4.037 7.06472,-2.01848 10.09243,15.13867 10.09243,15.13867 l 4.037,1.00925 z"
       inkscape:connector-curvature="0"
       style="fill:#2f2e41" />
    <polygon
       id="polygon28"
       points="649.197,185.62 666.354,199.749 649.197,211.86 643.24,192.767 "
       style="fill:#d0cde1" />
    <polygon
       id="polygon30"
       points="678.465,181.583 666.354,199.749 681.493,210.851 685.53,190.666 "
       style="fill:#d0cde1" />
    <path
       id="path32"
       transform="translate(-229.5799,-145.76713)"
       d="m 851.52716,411.11737 4.037,38.35128 -8.07393,23.21265 -5.04623,22.20337 c 0,0 6e-5,21.19415 20.18489,22.20337 20.18483,1.00922 37.342,-63.5824 37.342,-63.5824 0,0 3.02772,14.1294 5.04622,22.20337 2.0185,8.07397 36.33279,40.36981 36.33279,40.36981 0,0 8.07394,-1.00928 15.13866,-17.15716 7.06472,-16.14788 -14.12941,-31.28656 -14.12941,-31.28656 l -6.0555,-21.19416 2.01849,-26.24035 14.1295,-68.62859 -41.88364,-21.69881 4.5416,58.03156 -15.13866,45.416 -22.708,-100.4198 -7.56933,5.55084 -32.29583,13.12021 z"
       inkscape:connector-curvature="0"
       style="fill:#2f2e41" />
    <path
       id="path34"
       transform="translate(-229.5799,-145.76713)"
       d="m 452.66437,563.76713 c -1.9956,-0.0156 -4.01416,-0.0293 -5.99658,-0.0908 l 0.0615,-1.999 c 1.96191,0.0605 3.96826,0.0879 5.93554,0.0898 1.97608,0 3.98975,-0.0322 5.98731,-0.0967 l 0.0644,1.99805 c -2.01953,0.0654 -4.05518,0.0986 -6.05225,0.0986 z m -18.019,-0.84472 c -3.98144,-0.377 -8.00244,-0.8877 -11.95068,-1.51758 l 0.31543,-1.97461 c 3.90625,0.62305 7.88428,1.12891 11.82373,1.502 z m 36.09229,-0.0215 -0.19043,-1.99023 c 3.938,-0.377 7.91552,-0.8877 11.82177,-1.5166 l 0.31836,1.97461 c -3.94877,0.63574 -7.96927,1.15136 -11.94974,1.53222 z M 410.8651,559.1226 c -3.89844,-0.88379 -7.8208,-1.90722 -11.65772,-3.041 l 0.5669,-1.918 c 3.7959,1.12207 7.67627,2.13379 11.5332,3.00781 z m 83.64844,-0.0498 -0.44434,-1.94922 c 3.86572,-0.88184 7.74512,-1.89844 11.52978,-3.02246 l 0.56934,1.918 c -3.82572,1.13571 -7.74711,2.16305 -11.65482,3.05368 z m -106.74512,-6.77637 c -3.76172,-1.38184 -7.52539,-2.90332 -11.18652,-4.52344 l 0.80957,-1.82812 c 3.62158,1.60156 7.34472,3.10742 11.0664,4.47461 z m 129.833,-0.0781 -0.69141,-1.877 c 3.69873,-1.3623 7.40918,-2.86719 11.02783,-4.47265 l 0.81153,1.82812 c -3.65873,1.62309 -7.40921,3.14457 -11.14798,4.52153 z m -151.88721,-9.67969 c -3.54,-1.84766 -7.0752,-3.83985 -10.50635,-5.91992 l 1.03711,-1.71094 c 3.395,2.05957 6.89209,4.0293 10.39453,5.85742 z m 173.87256,-0.0732 -0.92578,-1.77247 c 3.49414,-1.82714 6.9834,-3.79687 10.36914,-5.85449 l 1.03906,1.709 c -3.42288,2.08006 -6.94925,4.0703 -10.48245,5.91796 z M 345.10529,530.03862 c -3.27881,-2.28809 -6.52832,-4.71485 -9.65918,-7.21094 l 1.24707,-1.56445 c 3.09766,2.4707 6.313,4.87109 9.55664,7.13476 z m 215.04981,-0.0713 -1.14649,-1.63867 c 3.24317,-2.2666 6.4541,-4.667 9.54395,-7.13477 l 1.24805,1.5625 c -3.12305,2.49414 -6.36817,4.91992 -9.64551,7.21094 z M 326.26789,515.0142 c -2.96387,-2.69043 -5.87793,-5.50976 -8.65967,-8.37793 l 1.43555,-1.39257 c 2.75244,2.83789 5.63574,5.627 8.56885,8.29 z m 252.70166,-0.0693 -1.3457,-1.48047 c 2.92578,-2.65723 5.80664,-5.44824 8.56347,-8.293 l 1.43555,1.39063 c -2.78516,2.87597 -5.69726,5.69631 -8.65332,8.38284 z M 309.5008,497.72612 c -2.59521,-3.043 -5.12549,-6.208 -7.52148,-9.40723 l 1.60107,-1.19922 c 2.37061,3.166 4.874,6.29785 7.44189,9.30762 z m 286.22754,-0.083 -1.52148,-1.29688 c 2.56738,-3.01269 5.07128,-6.14843 7.4414,-9.31835 l 1.60156,1.19726 c -2.3955,3.20409 -4.92582,6.37304 -7.52148,9.41796 z M 295.07453,478.4517 c -2.188,-3.35058 -4.29346,-6.81054 -6.2583,-10.28418 l 1.74121,-0.98437 c 1.94336,3.43652 4.02686,6.86035 6.1919,10.1748 z m 315.08252,-0.10839 -1.67578,-1.0918 c 2.166,-3.32129 4.249,-6.751 6.19336,-10.19531 l 1.74219,0.98242 c -1.96482,3.48238 -4.07129,6.94922 -6.25977,10.30469 z m -326.92578,-20.8379 c -1.74024,-3.5996 -3.38428,-7.29882 -4.88623,-10.99609 l 1.85254,-0.752 c 1.48633,3.65625 3.11279,7.3164 4.83447,10.877 z M 622.00373,457.34916 620.203,456.48 c 1.7207,-3.5664 3.34766,-7.23632 4.83594,-10.91015 l 1.85351,0.75 c -1.50395,3.71388 -3.14845,7.42482 -4.88872,11.02931 z m -347.8335,-22.1416 c -1.26513,-3.79883 -2.42089,-7.68457 -3.43554,-11.5498 l 1.93457,-0.50781 c 1.00342,3.82324 2.147,7.668 3.39843,11.4248 z m 356.88916,-0.21191 -1.89843,-0.62891 c 1.24414,-3.75293 2.38379,-7.59863 3.38476,-11.42968 l 1.93555,0.50585 c -1.0127,3.87309 -2.16406,7.75977 -3.42188,11.55274 z m -363.00781,-23.082 c -0.76416,-3.92383 -1.41064,-7.92481 -1.92187,-11.89258 l 1.9834,-0.25586 c 0.50585,3.92578 1.1455,7.88379 1.90136,11.76563 z m 369.09863,-0.21973 -1.96289,-0.37891 c 0.75,-3.88085 1.38575,-7.84082 1.88672,-11.76953 l 1.98438,0.25391 c -0.50684,3.97067 -1.14942,7.97261 -1.90821,11.8945 z M 264.97346,388.03081 c -0.25635,-3.98633 -0.38868,-8.03809 -0.39307,-12.043 l 2,-0.002 c 0.004,3.96289 0.13525,7.97168 0.38916,11.916 z m 375.22754,-0.22364 -1.9961,-0.12695 c 0.249,-3.94043 0.375,-7.94922 0.375,-11.91309 l -10e-4,-0.43847 h 2 l 10e-4,0.43164 c 0,4.0127 -0.1279,8.06347 -0.3789,12.04687 z m -373.25928,-23.73535 -1.9961,-0.123 c 0.248,-3.99414 0.62745,-8.02929 1.12793,-11.99414 l 1.98438,0.25 c -0.49561,3.92378 -0.87109,7.91597 -1.11621,11.86714 z m 371.23584,-0.65625 c -0.25977,-3.95312 -0.64942,-7.94434 -1.1582,-11.8623 l 1.98242,-0.25782 c 0.51465,3.96 0.90918,7.99317 1.17187,11.98926 z M 269.931,340.4351 l -1.96387,-0.37793 c 0.75439,-3.92529 1.648,-7.8789 2.65478,-11.751 l 1.93555,0.50293 c -0.99611,3.83108 -1.8799,7.74221 -2.62646,11.626 z m 365.17138,-0.645 c -0.76172,-3.88574 -1.66015,-7.79394 -2.668,-11.6167 l 1.9336,-0.50976 c 1.01953,3.86377 1.92676,7.814 2.69726,11.7417 z m -359.17287,-22.41359 -1.89941,-0.627 c 1.25537,-3.8003 2.65283,-7.61231 4.15429,-11.33057 l 1.8545,0.749 c -1.48536,3.67829 -2.86768,7.44929 -4.10938,11.20857 z m 353.09473,-0.62354 c -1.25586,-3.7539 -2.64942,-7.51416 -4.14258,-11.17675 l 1.85156,-0.75489 c 1.50977,3.70215 2.91895,7.50293 4.1875,11.29688 z M 284.86311,295.25 l -1.80274,-0.86718 c 1.73486,-3.60645 3.61084,-7.20508 5.5752,-10.69532 l 1.74316,0.98145 c -1.94385,3.45268 -3.79932,7.01273 -5.51562,10.58105 z m 335.17187,-0.54541 c -1.72266,-3.55127 -3.585,-7.09814 -5.53809,-10.542 l 1.74024,-0.98633 c 1.97363,3.48047 3.85644,7.06592 5.59668,10.65625 z m -323.47461,-20.23921 -1.67676,-1.09082 c 2.18116,-3.35254 4.501,-6.68018 6.89453,-9.88965 l 1.60352,1.19531 c -2.36816,3.17578 -4.66357,6.46778 -6.82129,9.78516 z m 311.73242,-0.47071 c -2.16406,-3.30517 -4.46582,-6.58691 -6.84277,-9.7539 l 1.59961,-1.2002 c 2.40234,3.20117 4.72949,6.51807 6.917,9.8584 z m -297.48047,-18.64111 -1.52343,-1.29492 c 2.59033,-3.04737 5.31347,-6.05127 8.09375,-8.92774 l 1.43847,1.38965 c -2.75097,2.84619 -5.44531,5.81836 -8.00879,8.83301 z m 283.18457,-0.41211 c -2.57128,-3.00635 -5.27441,-5.96973 -8.03222,-8.80762 l 1.43359,-1.39355 c 2.78809,2.86767 5.51953,5.86279 8.11817,8.90137 z m -266.62255,-16.7251 -1.34668,-1.47851 c 2.95947,-2.6958 6.0415,-5.32813 9.15966,-7.82325 l 1.25,1.56153 c -3.08545,2.46875 -6.13476,5.07324 -9.06298,7.74023 z m 250.01123,-0.36279 c -2.93262,-2.65479 -5.99024,-5.25147 -9.08985,-7.71729 l 1.2461,-1.56543 c 3.13183,2.49268 6.22265,5.1167 9.18554,7.8003 z M 345.973,223.33012 l -1.14746,-1.63769 c 3.27246,-2.29346 6.66308,-4.51075 10.07763,-6.59082 l 1.04053,1.708 c -3.37796,2.05811 -6.73294,4.25196 -9.9707,6.52051 z m 212.7583,-0.31836 c -3.25586,-2.26611 -6.62109,-4.45263 -10.00293,-6.499 l 1.03516,-1.71094 c 3.418,2.06787 6.82031,4.27783 10.11035,6.56836 z m -192.42435,-12.06933 -0.92871,-1.77149 c 3.53565,-1.85449 7.18018,-3.61914 10.83106,-5.24463 l 0.81347,1.82715 c -3.6123,1.60791 -7.21728,3.35401 -10.71582,5.18897 z m 172.02,-0.27442 c -3.5122,-1.82812 -7.13135,-3.56592 -10.75781,-5.16553 l 0.80762,-1.83007 c 3.665,1.6167 7.32373,3.37353 10.874,5.22119 z m -150.28125,-9.40088 -0.69433,-1.876 c 3.75,-1.38721 7.59521,-2.67041 11.4292,-3.81348 l 0.57128,1.917 c -3.79294,1.13035 -7.59666,2.39992 -11.30613,3.77248 z m 128.45166,-0.22705 c -3.71728,-1.35986 -7.52588,-2.61572 -11.31982,-3.73193 l 0.56445,-1.919 c 3.835,1.12842 7.68506,2.398 11.44287,3.773 z M 410.87775,194.46 l -0.44629,-1.94921 c 3.89112,-0.89161 7.86915,-1.66846 11.82373,-2.31055 l 0.32032,1.97461 c -3.9126,0.63476 -7.84815,1.40332 -11.69776,2.28515 z m 82.7627,-0.1455 c -3.85645,-0.86914 -7.79492,-1.624 -11.70606,-2.24414 l 0.31348,-1.97559 c 3.95313,0.62695 7.93408,1.39014 11.832,2.26855 z m -59.24463,-3.67041 -0.19336,-1.99024 c 3.9707,-0.38525 8.01514,-0.64844 12.02051,-0.78174 l 0.0664,1.999 c -3.96337,0.13189 -7.96484,0.39212 -11.89355,0.77298 z m 35.71289,-0.062 c -3.93457,-0.36767 -7.9375,-0.61376 -11.896,-0.73144 l 0.0596,-1.999 c 4.00049,0.11914 8.0459,0.36767 12.02247,0.73925 z"
       inkscape:connector-curvature="0"
       style="fill:#d0cde1" />
    <circle
       id="circle36"
       r="47"
       cy="47"
       cx="216"
       style="fill:#6c63ff" />
    <circle
       id="circle38"
       r="47"
       cy="175"
       cx="398"
       style="fill:#6c63ff" />
    <circle
       id="circle40"
       r="47"
       cy="371"
       cx="341"
       style="fill:#6c63ff" />
    <circle
       id="circle42"
       r="47"
       cy="379"
       cx="115"
       style="fill:#6c63ff" />
    <circle
       id="circle44"
       r="47"
       cy="175"
       cx="47"
       style="fill:#6c63ff" />
    <path
       id="path46"
       transform="translate(-229.5799,-145.76713)"
       d="m 465.72088,189.02 h -16.39382 a 5.62074,5.62074 0 0 1 -5.62074,-5.62074 v -16.39384 a 0.46838,0.46838 0 0 0 -0.46839,-0.46839 h -10.77308 a 7.49432,7.49432 0 0 0 -7.49432,7.49431 v 37.47158 a 7.49432,7.49432 0 0 0 7.49432,7.49432 H 458.695 a 7.49432,7.49432 0 0 0 7.49432,-7.49432 V 189.48837 A 0.46839,0.46839 0 0 0 465.72088,189.02 Z M 454.9478,207.75577 H 436.212 a 1.87358,1.87358 0 1 1 0,-3.74716 h 18.7358 a 1.87358,1.87358 0 0 1 0,3.74716 z m 0,-9.3679 H 436.212 a 1.87358,1.87358 0 1 1 0,-3.74716 h 18.7358 a 1.87358,1.87358 0 1 1 0,3.74716 z"
       inkscape:connector-curvature="0"
       style="fill:#ffffff" />
    <path
       id="path48"
       transform="translate(-229.5799,-145.76713)"
       d="m 464.69275,184.87351 -16.84,-16.84 a 0.2342,0.2342 0 0 0 -0.39931,0.16511 v 15.20058 a 1.87358,1.87358 0 0 0 1.87358,1.87358 h 15.20058 a 0.2342,0.2342 0 0 0 0.16511,-0.39931 z"
       inkscape:connector-curvature="0"
       style="fill:#ffffff" />
    <path
       id="path64"
       transform="translate(-229.5799,-145.76713)"
       d="m 629.83146,319.53624 -2.43291,-2.43384 a 2.98172,2.98172 0 0 0 -4.2061,-0.0112 l -16.91481,15.6103 a 3.15889,3.15889 0 0 0 -1.05759,2.14871 2.992,2.992 0 0 0 0.85818,2.23071 l 3.634,3.67405 0.007,0.007 a 3.00877,3.00877 0 0 0 2.11424,0.87775 h 0.11 a 3.12884,3.12884 0 0 0 2.159,-1.04081 L 629.82121,323.761 a 2.98174,2.98174 0 0 0 0.0182,-4.21677 z"
       inkscape:connector-curvature="0"
       style="fill:#ffffff" />
    <path
       id="path66"
       transform="translate(-229.5799,-145.76713)"
       d="m 649.38417,314.61731 -0.0289,-0.0289 -3.19325,-3.16064 a 1.99963,1.99963 0 0 0 -1.42378,-0.5833 2.03966,2.03966 0 0 0 -1.19176,0.38576 c 0,-0.0401 0.006,-0.0792 0.008,-0.11368 a 3.40623,3.40623 0 0 0 -0.48453,-2.35 24.03891,24.03891 0 0 0 -2.31084,-2.678 l -0.007,-0.007 a 25.22236,25.22236 0 0 0 -8.0805,-5.21244 13.00307,13.00307 0 0 0 -4.946,-0.97372 9.426,9.426 0 0 0 -6.03335,2.1133 11.174,11.174 0 0 0 -1.32128,1.51137 1.49087,1.49087 0 0 0 1.73779,2.268 6.9359,6.9359 0 0 1 0.79948,-0.24506 5.91293,5.91293 0 0 1 1.71915,-0.10716 7.22788,7.22788 0 0 1 3.32557,1.21971 4.78951,4.78951 0 0 1 1.70145,3.82873 9.9386,9.9386 0 0 1 -1.86358,3.21282 1.49086,1.49086 0 0 0 0.13511,1.95676 l 3.20629,3.2063 a 1.49087,1.49087 0 0 0 2.04994,0.0578 c 0.90664,-0.80973 2.28755,-2.03038 2.77022,-2.32948 a 3.4702,3.4702 0 0 1 1.36974,-0.54044 1.78717,1.78717 0 0 1 1.052,0.22177 0.11556,0.11556 0 0 1 -0.0289,0.0885 l -0.16958,0.1612 -0.028,0.0261 a 2.00521,2.00521 0 0 0 -0.005,2.83579 l 0.01,0.01 3.19232,3.1597 a 1.99865,1.99865 0 0 0 1.42377,0.58237 2.02193,2.02193 0 0 0 1.41819,-0.57771 l 5.17144,-5.10808 c 0.0177,-0.0177 0.0354,-0.0363 0.0522,-0.055 a 2.03783,2.03783 0 0 0 -0.026,-2.77481 z"
       inkscape:connector-curvature="0"
       style="fill:#ffffff" />
    <text
       id="text890"
       y="197.8515"
       x="29.114212"
       style="font-style:normal;font-weight:normal;font-size:62.77650833px;line-height:1.25;font-family:sans-serif;text-align:start;letter-spacing:0px;word-spacing:0px;text-anchor:start;fill:#ffffff;fill-opacity:1;stroke:none;stroke-width:1.56941283"
       xml:space="preserve"><tspan
         style="stroke-width:1.56941283"
         y="197.8515"
         x="29.114212"
         id="tspan888"
         sodipodi:role="line">€</tspan></text>
    <path
       style="fill:#ffffff;fill-opacity:1;stroke-width:0.8942517"
       id="path2-6"
       d="m 138.51882,359.41589 c -2.32506,-0.80483 -5.99149,-1.87793 -10.10505,-1.87793 -6.08091,0 -11.26757,2.23563 -13.32435,3.30873 -0.89425,-0.44712 -2.05678,-0.89425 -3.39814,-1.4308 -2.32507,-0.80483 -5.99149,-1.87793 -10.10505,-1.87793 -7.77999,0 -14.03976,3.66643 -14.30803,3.84528 l -0.89425,0.53655 v 38.54225 h 26.82755 3.577 26.82755 v -37.55857 c 0,-1.60965 -2.23563,-2.41448 -5.09723,-3.48758 z m 1.52022,4.56068 v 28.25835 c -2.59333,-1.0731 -6.79631,-2.5039 -11.62527,-2.5039 -4.82896,0 -9.03194,1.4308 -11.62527,2.5039 v -28.25835 c 1.87793,-0.89425 6.43861,-2.8616 11.62527,-2.8616 5.27609,0 9.74735,1.96735 11.62527,2.8616 z m -38.45282,-2.8616 c 5.27609,0 9.74734,1.96735 11.62527,2.8616 v 28.25835 c -2.59333,-1.0731 -6.79631,-2.5039 -11.62527,-2.5039 -4.82896,0 -9.03194,1.4308 -11.62527,2.5039 v -28.25835 c 1.87793,-0.89425 6.43861,-2.8616 11.62527,-2.8616 z m -11.62527,35.77006 v -0.7154 c 1.87793,-0.89425 6.34919,-2.8616 11.62527,-2.8616 5.27609,0 9.74734,1.96735 11.62527,2.8616 v 0.7154 z m 26.82755,0 v -0.7154 c 1.87793,-0.89425 6.34919,-2.8616 11.62527,-2.8616 5.27609,0 9.74735,1.96735 11.62527,2.8616 v 0.7154 z"
       inkscape:connector-curvature="0" />
    <g
       style="fill:#ffffff"
       transform="matrix(0.80795456,0,0,0.80795456,315.14545,345.18585)"
       id="g10">
      <path
         style="fill:#ffffff"
         inkscape:connector-curvature="0"
         id="path2-5"
         d="M 57,14 H 54 V 0 H 10 V 14 H 7 c -3.9,0 -7,3.3 -7,7.3 v 21.3 c 0,4 3.1,7.3 7,7.3 h 2 v 14 H 55 V 50 h 2 c 3.9,0 7,-3.3 7,-7.3 V 21.3 C 64,17.3 60.9,14 57,14 Z M 14,4 H 50 V 14 H 14 Z M 51,60 H 13 V 41 H 51 Z M 60,42.7 C 60,44.5 58.7,46 57,46 H 55 V 37 H 9 v 9 H 7 C 5.3,46 4,44.5 4,42.7 V 21.3 C 4,19.5 5.3,18 7,18 h 50 c 1.7,0 3,1.5 3,3.3 z" />
      <path
         style="fill:#ffffff"
         inkscape:connector-curvature="0"
         id="path4"
         d="m 53,20 c -2.8,0 -5,2.2 -5,5 0,2.8 2.2,5 5,5 2.8,0 5,-2.2 5,-5 0,-2.8 -2.2,-5 -5,-5 z m 0,6 c -0.6,0 -1,-0.4 -1,-1 0,-0.6 0.4,-1 1,-1 0.6,0 1,0.4 1,1 0,0.6 -0.4,1 -1,1 z" />
      <rect
         style="fill:#ffffff"
         id="rect6"
         height="4"
         width="30"
         y="45"
         x="17" />
      <rect
         style="fill:#ffffff"
         id="rect8"
         height="4"
         width="30"
         y="52"
         x="17" />
    </g>
  </g>
</svg>
