<?xml version="1.0" encoding="UTF-8" standalone="no"?>
<svg
   xmlns:dc="http://purl.org/dc/elements/1.1/"
   xmlns:cc="http://creativecommons.org/ns#"
   xmlns:rdf="http://www.w3.org/1999/02/22-rdf-syntax-ns#"
   xmlns:svg="http://www.w3.org/2000/svg"
   xmlns="http://www.w3.org/2000/svg"
   xmlns:sodipodi="http://sodipodi.sourceforge.net/DTD/sodipodi-0.dtd"
   xmlns:inkscape="http://www.inkscape.org/namespaces/inkscape"
   width="801.67926"
   height="600"
   viewBox="0 0 801.67926 600"
   version="1.1"
   id="svg67"
   sodipodi:docname="cool_pdf.svg"
   style="fill:none"
   inkscape:version="0.92.3 (2405546, 2018-03-11)">
  <metadata
     id="metadata71">
    <rdf:RDF>
      <cc:Work
         rdf:about="">
        <dc:format>image/svg+xml</dc:format>
        <dc:type
           rdf:resource="http://purl.org/dc/dcmitype/StillImage" />
        <dc:title></dc:title>
      </cc:Work>
    </rdf:RDF>
  </metadata>
  <sodipodi:namedview
     pagecolor="#ffffff"
     bordercolor="#666666"
     borderopacity="1"
     objecttolerance="10"
     gridtolerance="10"
     guidetolerance="10"
     inkscape:pageopacity="0"
     inkscape:pageshadow="2"
     inkscape:window-width="1920"
     inkscape:window-height="1001"
     id="namedview69"
     showgrid="false"
     fit-margin-top="0"
     fit-margin-left="0"
     fit-margin-right="0"
     fit-margin-bottom="0"
     inkscape:zoom="0.83023485"
     inkscape:cx="323.22807"
     inkscape:cy="282.52695"
     inkscape:window-x="-9"
     inkscape:window-y="-9"
     inkscape:window-maximized="1"
     inkscape:current-layer="svg67" />
  <g
     clip-path="url(#clip0)"
     id="g60"
     transform="matrix(3,0,0,3,-156.17872,-2.0698261)">
    <path
       d="m 259.343,8.1622 c -4.21,-7.11389 -12.54,-7.445424 -12.54,-7.445424 0,0 -8.116,-1.037931 -13.323,9.796624 -4.853,10.0986 -11.551,19.8491 -1.078,22.2132 l 1.891,-5.8878 1.172,6.3261 c 1.491,0.1072 2.987,0.1328 4.481,0.0766 11.215,-0.3621 21.896,0.1059 21.552,-3.9186 -0.457,-5.3501 1.896,-14.3157 -2.155,-21.1607 z"
       id="path2"
       inkscape:connector-curvature="0"
       style="fill:#2f2e41" />
    <path
       d="m 237.852,191.207 c 35.55,0 64.368,-1.672 64.368,-3.735 0,-2.064 -28.818,-3.736 -64.368,-3.736 -35.549,0 -64.368,1.672 -64.368,3.736 0,2.063 28.819,3.735 64.368,3.735 z"
       id="path4"
       inkscape:connector-curvature="0"
       style="fill:#3f3d56" />
    <path
       d="m 135.554,182.586 c 45.071,0 81.609,-1.672 81.609,-3.735 0,-2.063 -36.538,-3.736 -81.609,-3.736 -45.072,0 -81.6097,1.673 -81.6097,3.736 0,2.063 36.5377,3.735 81.6097,3.735 z"
       id="path6"
       inkscape:connector-curvature="0"
       style="fill:#3f3d56" />
    <path
       d="m 182.68,200.69 c 40.151,0 72.701,-1.673 72.701,-3.736 0,-2.063 -32.55,-3.735 -72.701,-3.735 -40.152,0 -72.701,1.672 -72.701,3.735 0,2.063 32.549,3.736 72.701,3.736 z"
       id="path8"
       inkscape:connector-curvature="0"
       style="fill:#3f3d56" />
    <path
       d="m 212.928,172.279 c 0.265,9.068 -5.034,12.392 -11.684,12.586 -0.154,0.004 -0.308,0.007 -0.461,0.008 -0.308,0.002 -0.614,-0.003 -0.916,-0.015 -6.014,-0.25 -10.774,-3.442 -11.021,-11.876 -0.255,-8.728 10.578,-20.068 11.391,-20.907 h 0.002 c 0.03,-0.032 0.046,-0.048 0.046,-0.048 0,0 12.378,11.184 12.643,20.252 z"
       id="path10"
       inkscape:connector-curvature="0"
       style="fill:#3481d7" />
    <path
       d="m 200.765,183.49 4.224,-6.281 -4.216,6.957 0.009,0.707 c -0.308,0.002 -0.614,-0.003 -0.916,-0.015 l 0.21,-9.086 -0.006,-0.07 0.008,-0.014 0.02,-0.859 -4.626,-6.716 4.62,6.074 0.017,0.181 0.158,-6.864 -3.996,-6.964 4.007,5.758 -0.042,-14.223 v -0.047 l 0.002,0.047 0.265,11.209 3.641,-4.553 -3.629,5.518 0.079,6.141 3.351,-5.993 -3.338,6.895 0.044,3.415 4.873,-8.348 -4.858,9.539 z"
       id="path12"
       inkscape:connector-curvature="0"
       style="fill:#3f3d56" />
    <path
       d="m 76.1455,165.957 c 0.2649,9.068 -5.0338,12.392 -11.6834,12.586 -0.1545,0.004 -0.3083,0.007 -0.4613,0.008 -0.3084,0.003 -0.6138,-0.003 -0.9162,-0.015 -6.0139,-0.25 -10.7743,-3.442 -11.0206,-11.876 -0.2549,-8.728 10.5782,-20.068 11.3909,-20.906 l 0.0015,-0.001 c 0.0308,-0.032 0.0466,-0.048 0.0466,-0.048 0,0 12.3777,11.184 12.6425,20.252 z"
       id="path14"
       inkscape:connector-curvature="0"
       style="fill:#3481d7" />
    <path
       d="m 63.9834,177.169 4.2241,-6.282 -4.2154,6.958 0.0088,0.706 c -0.3084,0.003 -0.6138,-0.002 -0.9161,-0.015 l 0.2095,-9.086 -0.0058,-0.07 0.0078,-0.014 0.02,-0.858 -4.6259,-6.717 4.6205,6.074 0.0163,0.182 0.1583,-6.865 -3.9955,-6.963 4.0069,5.757 -0.0419,-14.222 1e-4,-0.048 0.0014,0.047 0.2652,11.209 3.6415,-4.553 -3.6296,5.518 0.0795,6.141 3.3509,-5.993 -3.3386,6.896 0.0443,3.414 4.873,-8.348 -4.8582,9.539 z"
       id="path16"
       inkscape:connector-curvature="0"
       style="fill:#3f3d56" />
    <path
       d="m 295.306,180.834 21.283,-31.651 -21.24,35.056 0.045,3.562 c -1.554,0.012 -3.093,-0.014 -4.617,-0.078 l 1.056,-45.781 -0.029,-0.354 0.039,-0.068 0.101,-4.326 -23.308,-33.841 23.281,30.603 0.082,0.915 0.798,-34.59 -20.133,-35.0854 20.19,29.0089 -0.211,-71.661 0.001,-0.2385 0.006,0.2346 1.337,56.4785 18.348,-22.9416 -18.288,27.8071 0.4,30.9394 16.884,-30.1956 -16.822,34.7446 0.223,17.204 24.554,-42.0626 -24.479,48.0646 z"
       id="path18"
       inkscape:connector-curvature="0"
       style="fill:#3f3d56" />
    <path
       d="m 234.395,75.5374 c 0,0 -4.932,13.2171 -1.776,25.0536 3.157,11.836 11.442,40.046 11.442,40.046 l 11.047,21.896 c 0,0 6.313,4.34 10.061,-4.537 l -10.061,-18.938 9.848,-34.217 c 1.872,-6.3985 2.27,-13.1377 1.164,-19.7119 -0.561,-3.2489 -1.518,-6.4994 -3.121,-8.9998 0,0 -25.645,-3.9454 -28.604,-0.5919 z"
       id="path20"
       inkscape:connector-curvature="0"
       style="fill:#2f2e41" />
    <path
       d="m 244.652,138.269 -5.918,30.774 c 0,0 6.116,4.34 9.667,2.959 l 5.918,-22.686 z"
       id="path22"
       inkscape:connector-curvature="0"
       style="fill:#2f2e41" />
    <path
       d="m 239.524,168.452 -6.312,12.822 -2.565,5.129 c 0,0 -14.006,13.415 -2.959,12.034 11.047,-1.381 11.836,-3.354 11.836,-3.354 l 2.17,-3.156 0.592,1.183 c 0,0 3.156,-2.564 3.156,-3.353 0,-0.789 -1.183,-8.877 -1.183,-8.877 l 1.578,-9.469 z"
       id="path24"
       inkscape:connector-curvature="0"
       style="fill:#2f2e41" />
    <path
       d="m 257.476,162.336 3.353,9.075 -1.972,7.89 c 0,0 -7.694,10.456 0.197,9.864 7.891,-0.592 9.272,-6.313 9.272,-6.313 l 1.183,-3.748 0.987,0.395 2.959,-5.327 -5.524,-8.877 -3.748,-6.51 z"
       id="path26"
       inkscape:connector-curvature="0"
       style="fill:#2f2e41" />
    <path
       d="m 278.386,86.5846 1.183,6.1154 c 0,0 4.932,11.047 0,11.442 -4.931,0.394 -4.931,-10.8502 -4.931,-10.8502 l 0.394,-4.5372 z"
       id="path28"
       inkscape:connector-curvature="0"
       style="fill:#ffb8b8" />
    <path
       d="m 193.363,54.8241 -6.904,-1.1836 c 0,0 -13.612,-7.1017 -13.415,-1.9727 0.197,5.129 12.823,7.4963 12.823,7.4963 l 3.748,1.3809 z"
       id="path30"
       inkscape:connector-curvature="0"
       style="fill:#ffb8b8" />
    <path
       d="m 246.231,26.0227 c 5.011,0 9.074,-4.0628 9.074,-9.0744 0,-5.0117 -4.063,-9.07446 -9.074,-9.07446 -5.012,0 -9.075,4.06276 -9.075,9.07446 0,5.0116 4.063,9.0744 9.075,9.0744 z"
       id="path32"
       inkscape:connector-curvature="0"
       style="fill:#ffb8b8" />
    <path
       d="m 242.286,23.0636 c 0,0 1.973,7.4963 -1.578,9.0744 -3.551,1.5782 -3.945,2.7618 -3.945,2.7618 0,0 23.672,7.4963 25.447,-1.3809 l -8.088,-4.5372 c 0,0 -0.789,-6.3126 -1.578,-6.7072 -0.789,-0.3945 -10.258,0.7891 -10.258,0.7891 z"
       id="path34"
       inkscape:connector-curvature="0"
       style="fill:#ffb8b8" />
    <path
       d="m 270.517,38.7823 c -0.141,-0.5959 -0.507,-1.1141 -1.022,-1.4456 -2.06,-1.3269 -7.422,-4.6963 -8.153,-4.3044 -0.908,0.4867 -7.871,3.8201 -21.651,-0.4111 0,0 -10.425,2.8705 -13.384,4.8432 -2.959,1.9726 -9.145,8.3405 -9.145,8.3405 0,0 -28.07,4.5293 -27.873,6.8965 0.197,2.3673 -2.012,8.046 -2.012,8.046 0,0 18.391,3.7356 37.069,-4.023 0,0 5.906,13.684 5.314,16.2485 -0.592,2.5646 -0.592,4.34 4.143,3.9454 4.734,-0.3945 12.033,-1.5781 15.782,-0.9863 3.748,0.5918 17.754,1.5782 17.754,0.5918 v -6.1154 c 0,0 4.34,21.3052 7.102,21.3052 2.761,0 7.038,-1.665 8.813,-7.9777 l -8.62,-27.5862 z"
       id="path36"
       inkscape:connector-curvature="0"
       style="fill:#cee4f3" />
    <path
       d="m 248.769,97.0478 -4.873,42.2432 0.857,0.098 4.872,-42.2424 z"
       id="path38"
       inkscape:connector-curvature="0"
       style="opacity:0.2;fill:#000000" />
    <path
       d="m 257.481,7.80087 -8.229,-4.31064 -11.364,1.76351 -2.351,10.38446 5.853,-0.2253 1.635,-3.8149 v 3.752 l 2.701,-0.1037 1.567,-6.07388 0.98,6.46578 9.6,-0.196 z"
       id="path40"
       inkscape:connector-curvature="0"
       style="fill:#2f2e41" />
    <path
       d="m 169.871,36.4673 c -0.322,-0.3237 -0.704,-0.5807 -1.126,-0.7563 -0.421,-0.1755 -0.873,-0.2662 -1.329,-0.2668 -0.457,-6e-4 -0.909,0.0888 -1.331,0.2633 -0.422,0.1744 -0.805,0.4303 -1.128,0.7531 -0.323,0.3229 -0.579,0.7062 -0.753,1.1281 -0.175,0.4219 -0.264,0.874 -0.264,1.3306 0.001,0.4565 0.092,0.9084 0.267,1.3298 0.176,0.4215 0.433,0.8041 0.757,1.126 l 4.907,4.9079 4.908,-4.9079 c 0.648,-0.6514 1.012,-1.5332 1.01,-2.452 -10e-4,-0.9189 -0.366,-1.7998 -1.016,-2.4495 -0.65,-0.6497 -1.531,-1.0153 -2.45,-1.0164 -0.918,-0.0012 -1.8,0.362 -2.452,1.0101 z"
       id="path42"
       inkscape:connector-curvature="0"
       style="fill:#ff6584" />
    <path
       d="m 182.802,19.2259 c -0.322,-0.3237 -0.705,-0.5807 -1.126,-0.7562 -0.421,-0.1756 -0.873,-0.2663 -1.33,-0.2669 -0.456,-6e-4 -0.909,0.0889 -1.33,0.2633 -0.422,0.1744 -0.806,0.4304 -1.128,0.7532 -0.323,0.3228 -0.579,0.7061 -0.754,1.128 -0.174,0.4219 -0.264,0.8741 -0.263,1.3306 0.001,0.4565 0.091,0.9085 0.267,1.3299 0.176,0.4214 0.433,0.804 0.756,1.126 l 4.908,4.9079 4.908,-4.9079 c 0.648,-0.6514 1.011,-1.5332 1.01,-2.4521 -0.001,-0.9188 -0.367,-1.7997 -1.016,-2.4494 -0.65,-0.6498 -1.531,-1.0153 -2.45,-1.0165 -0.919,-0.0012 -1.801,0.3621 -2.452,1.0101 z"
       id="path44"
       inkscape:connector-curvature="0"
       style="fill:#ff6584" />
    <path
       d="m 163.836,3.13394 c -0.473,-0.47367 -1.035,-0.84948 -1.653,-1.10596 -0.618,-0.25647 -1.281,-0.38859 -1.951,-0.38879 -0.669,-2e-4 -1.332,0.13151 -1.951,0.38761 -0.618,0.2561 -1.18,0.63157 -1.654,1.10495 -0.473,0.47339 -0.849,1.03541 -1.105,1.65395 -0.256,0.61855 -0.387,1.28149 -0.387,1.95096 0,0.66947 0.132,1.33233 0.389,1.95072 0.256,0.61839 0.632,1.18018 1.106,1.65332 l 7.206,7.2067 7.207,-7.2067 c 0.474,-0.47314 0.849,-1.03493 1.106,-1.65332 0.256,-0.61839 0.389,-1.28125 0.389,-1.95072 0,-0.66947 -0.132,-1.33241 -0.388,-1.95096 C 171.894,4.16716 171.519,3.60514 171.045,3.13175 170.572,2.65837 170.01,2.2829 169.391,2.0268 168.773,1.7707 168.11,1.63899 167.44,1.63919 c -0.669,2e-4 -1.332,0.13232 -1.95,0.38879 -0.619,0.25648 -1.181,0.63229 -1.654,1.10596 z"
       id="path46"
       inkscape:connector-curvature="0"
       style="fill:#ff6584" />
    <path
       d="M 164.704,67.0692 H 71.8877 V 178.276 h 92.8163 z"
       id="path48"
       inkscape:connector-curvature="0"
       style="fill:#3f3d56" />
    <path
       d="M 154.359,74.8279 H 82.5195 v 95.6901 h 71.8395 z"
       id="path50"
       inkscape:connector-curvature="0"
       style="fill:#ffffff" />
    <path
       d="M 133.957,82.2991 H 102.635 V 110.46 h 31.322 z"
       id="path52"
       inkscape:connector-curvature="0"
       style="fill:#3481d7" />
    <path
       d="m 133.957,125.115 h -31.322 v 28.161 h 31.322 z"
       id="path54"
       inkscape:connector-curvature="0"
       style="fill:#3481d7" />
    <path
       d="m 127.348,155.288 h -18.104 v 2.299 h 18.104 z"
       id="path56"
       inkscape:connector-curvature="0"
       style="fill:#3481d7" />
    <path
       d="m 127.348,111.897 h -18.104 v 2.299 h 18.104 z"
       id="path58"
       inkscape:connector-curvature="0"
       style="fill:#3481d7" />
  </g>
  <defs
     id="defs65">
    <clipPath
       id="clip0">
      <rect
         width="318.66299"
         height="200"
         transform="translate(0.623047,0.689941)"
         id="rect62"
         x="0"
         y="0"
         style="fill:#ffffff" />
    </clipPath>
  </defs>
</svg>
