<?xml version="1.0" encoding="UTF-8" standalone="no"?>
<svg
   xmlns:dc="http://purl.org/dc/elements/1.1/"
   xmlns:cc="http://creativecommons.org/ns#"
   xmlns:rdf="http://www.w3.org/1999/02/22-rdf-syntax-ns#"
   xmlns:svg="http://www.w3.org/2000/svg"
   xmlns="http://www.w3.org/2000/svg"
   xmlns:xlink="http://www.w3.org/1999/xlink"
   xmlns:sodipodi="http://sodipodi.sourceforge.net/DTD/sodipodi-0.dtd"
   xmlns:inkscape="http://www.inkscape.org/namespaces/inkscape"
   width="679.16144"
   height="562.69824"
   viewBox="0 0 679.16144 562.69825"
   version="1.1"
   id="svg154"
   sodipodi:docname="Landing-Page.svg"
   style="fill:none"
   inkscape:version="0.92.3 (2405546, 2018-03-11)">
  <metadata
     id="metadata158">
    <rdf:RDF>
      <cc:Work
         rdf:about="">
        <dc:format>image/svg+xml</dc:format>
        <dc:type
           rdf:resource="http://purl.org/dc/dcmitype/StillImage" />
        <dc:title></dc:title>
      </cc:Work>
    </rdf:RDF>
  </metadata>
  <sodipodi:namedview
     pagecolor="#ffffff"
     bordercolor="#666666"
     borderopacity="1"
     objecttolerance="10"
     gridtolerance="10"
     guidetolerance="10"
     inkscape:pageopacity="0"
     inkscape:pageshadow="2"
     inkscape:window-width="1920"
     inkscape:window-height="1001"
     id="namedview156"
     showgrid="false"
     inkscape:zoom="0.86915208"
     inkscape:cx="267.64368"
     inkscape:cy="233.58335"
     inkscape:window-x="-9"
     inkscape:window-y="-9"
     inkscape:window-maximized="1"
     inkscape:current-layer="svg154"
     fit-margin-top="0"
     fit-margin-left="0"
     fit-margin-right="0"
     fit-margin-bottom="0" />
  <path
     d="m 619.34625,15.038675 c -144.78,-68.8926 -208.638,119.498995 -308.469,150.495995 -99.744,45.347 -195.923,-7.73 -255.310003,37.768 -94.133999,72.12 -52.8179992,198.289 7.446,251.376 86.420003,76.13 239.998003,48.73 398.743003,-33.588 198.88,-103.134 284.53,-345.644996 157.59,-406.051995 z"
     id="path4"
     inkscape:connector-curvature="0"
     style="opacity:0.4;fill:#98c3e8" />
  <path
     d="m 138.23925,90.128674 c 5,12.499996 -10,31.999996 -31.5,38.499996 -18.500003,5.593 -36.500003,5 -41.500003,-8 -4.423,-11.5 9.5,-23.999996 25.5,-30.499996 16.000003,-6.5 42.500003,-12.5 47.500003,0 z"
     id="path6"
     inkscape:connector-curvature="0"
     style="opacity:0.2;fill:#98c3e8" />
  <path
     d="m 301.73925,64.628674 c -3.891,-9.94 9.816,-33.134 26.802,-38.202 14.617,-4.359999 28.309,-14.633999 32.198,-4.297999 3.44,9.143999 -7.091,29.823999 -19.74,34.914999 -12.648,5.09 -35.369,17.524 -39.26,7.585 z"
     id="path8"
     inkscape:connector-curvature="0"
     style="opacity:0.2;fill:#98c3e8" />
  <path
     d="m 290.53125,556.84367 c -3.891,-9.939 8.024,-25.349 25.01,-30.417 14.617,-4.36 28.813,-3.814 32.702,6.523 3.44,9.143 -7.596,19.004 -20.244,24.094 -12.648,5.09 -33.576,9.74 -37.468,-0.2 z"
     id="path10"
     inkscape:connector-curvature="0"
     style="opacity:0.2;fill:#98c3e8" />
  <path
     d="m 466.31625,506.17867 c -8.1,-19.03 17.7,-61.315 53,-71 30.37,-8.334 79.4,8.71 87.5,28.499 7.15,17.506 -39.72,14.611 -66,24.344 -26.28,9.733 -66.41,37.186 -74.5,18.157 z"
     id="path12"
     inkscape:connector-curvature="0"
     style="opacity:0.2;fill:#98c3e8" />
  <mask
     id="mask0"
     mask-type="alpha"
     maskUnits="userSpaceOnUse"
     x="588"
     y="152"
     width="647"
     height="491">
    <path
       d="m 1174.58,165.634 c -140.57,-62.075 -196.915,120.535 -291.816,153.079 -94.447,46.316 -188.023,-1.939 -243.777,43.393 -88.376,71.856 -45.503,191.801 13.642,241.07 84.818,70.653 231.336,40.058 381.381,-43.393 C 1222,455.229 1297.84,220.064 1174.58,165.634 Z"
       id="path14"
       inkscape:connector-curvature="0"
       style="fill:#98c3e8" />
  </mask>
  <g
     transform="matrix(0.81497229,0,0,0.81497229,-387.64615,-71.127517)"
     id="g986"
     mask="none"
     clip-path="url(#clipPath992)">
    <rect
       style="fill:url(#linearGradient988)"
       id="rect972"
       height="681.48499"
       width="805.16199"
       y="72.091599"
       x="482.54001" />
    <path
       style="stroke:#ffffff;stroke-width:15;stroke-opacity:0.2"
       inkscape:connector-curvature="0"
       id="path974"
       d="m 584.132,289.157 c 73.827,37.229 156.489,141.437 156.489,191.194 0,61.208 -129.777,155.017 -189.302,208.232 l 507.961,32.812 c -18.09,-80.979 -63.763,-261.005 -35.97,-300.989 35.97,-51.742 181.52,-39.122 263.13,-29.657 l 22.08,-230.317 c -39.75,16.617 -128.72,64.363 -177.31,51.743 -44.97,-11.682 -131.247,-62.049 -167.845,-94.02" />
    <path
       style="stroke:#ffffff;stroke-width:15;stroke-opacity:0.2"
       inkscape:connector-curvature="0"
       id="path976"
       d="m 774.064,232.367 c 20.193,105.167 75.09,297.96 133.142,227.792 72.566,-87.709 129.984,-201.29 184.254,-126.201 43.41,60.072 107.27,178.575 133.77,230.317" />
    <path
       style="clip-rule:evenodd;fill:#ffffff;fill-opacity:0.6;fill-rule:evenodd"
       inkscape:connector-curvature="0"
       id="path978"
       d="m 1001.62,293.69 c 0,4.418 -3.579,8 -7.997,8 -4.418,0 -8,-3.582 -8,-8 0,-4.418 3.582,-8 8,-8 4.418,0 7.997,3.582 7.997,8 z m -330.997,173 c 4.418,0 8,-3.582 8,-8 0,-4.418 -3.582,-8 -8,-8 -4.418,0 -8,3.582 -8,8 0,4.418 3.582,8 8,8 z m 174,102 c 4.418,0 8,-3.582 8,-8 0,-4.418 -3.582,-8 -8,-8 -4.418,0 -8,3.582 -8,8 0,4.418 3.582,8 8,8 z m 273.997,-118 c 4.42,0 8,-3.582 8,-8 0,-4.418 -3.58,-8 -8,-8 -4.42,0 -8,3.582 -8,8 0,4.418 3.58,8 8,8 z" />
    <circle
       style="stroke:#ffffff;stroke-width:8;stroke-opacity:0.4"
       id="circle980"
       r="18"
       cy="545.69"
       cx="640.62299" />
    <circle
       style="stroke:#ffffff;stroke-width:8;stroke-opacity:0.4"
       id="circle982"
       r="18"
       cy="268.69"
       cx="1220.62" />
    <circle
       style="stroke:#ffffff;stroke-width:8;stroke-opacity:0.4"
       id="circle984"
       r="18"
       cy="501.69"
       cx="970.62299" />
  </g>
  <defs
     id="defs152">
    <linearGradient
       id="paint0_linear"
       x1="943.23901"
       y1="26.371201"
       x2="905.41602"
       y2="697.19702"
       gradientUnits="userSpaceOnUse">
      <stop
         stop-color="#D1ECFF"
         id="stop141" />
      <stop
         offset="1"
         stop-color="#1070B1"
         id="stop143" />
    </linearGradient>
    <clipPath
       id="clip0">
      <rect
         width="300"
         height="246.787"
         transform="translate(656.623,356.69)"
         id="rect146"
         x="0"
         y="0"
         style="fill:#ffffff" />
    </clipPath>
    <clipPath
       id="clip1">
      <rect
         width="318.66299"
         height="200"
         transform="translate(921.623,233.69)"
         id="rect149"
         x="0"
         y="0"
         style="fill:#ffffff" />
    </clipPath>
    <linearGradient
       inkscape:collect="always"
       xlink:href="#paint0_linear"
       id="linearGradient988"
       gradientUnits="userSpaceOnUse"
       x1="943.23901"
       y1="26.371201"
       x2="905.41602"
       y2="697.19702" />
    <clipPath
       clipPathUnits="userSpaceOnUse"
       id="clipPath992">
      <path
         style="fill:#98c3e8;stroke-width:1.22703564"
         inkscape:connector-curvature="0"
         id="path994"
         d="M 1210.2735,105.01362 C 1037.7891,28.845386 968.65183,252.91435 852.20493,292.847 736.3151,349.67838 621.49401,290.46778 553.08187,346.09175 c -108.44049,88.16987 -55.8338,235.34666 16.73922,295.80147 104.07471,86.69375 283.85751,49.15259 467.96801,-53.24475 230.6705,-128.29148 323.7288,-416.8473 172.4844,-483.63485 z" />
    </clipPath>
    <linearGradient
       inkscape:collect="always"
       xlink:href="#paint0_linear"
       id="linearGradient1014"
       gradientUnits="userSpaceOnUse"
       x1="943.23901"
       y1="26.371201"
       x2="905.41602"
       y2="697.19702" />
  </defs>
  <g
     clip-path="url(#clip0)"
     id="g79"
     transform="translate(-572.88375,-149.06133)">
    <path
       d="m 938.282,586.065 c 5.151,-5.861 29.408,-34.708 12.167,-39.464 -12.949,-3.572 -14.392,16.08 -13.957,29.267 -2.074,-8.885 -6.098,-19.264 -13.168,-14.684 -10.189,6.6 8.903,21.205 13.891,24.79 0.081,0.729 0.136,1.134 0.136,1.134 0,0 0.204,-0.223 0.569,-0.633 0.285,0.199 0.443,0.307 0.443,0.307 0,0 -0.026,-0.259 -0.081,-0.717 z"
       id="path33"
       inkscape:connector-curvature="0"
       style="fill:#e6e6e6" />
    <path
       d="m 677.131,602.109 c 5.9,-6.713 33.682,-39.753 13.936,-45.2 -14.831,-4.091 -16.483,18.417 -15.986,33.521 -2.374,-10.176 -6.983,-22.064 -15.081,-16.819 -11.67,7.559 10.197,24.287 15.909,28.394 0.094,0.835 0.156,1.299 0.156,1.299 0,0 0.234,-0.256 0.652,-0.726 0.326,0.229 0.507,0.351 0.507,0.351 0,0 -0.03,-0.296 -0.093,-0.82 z"
       id="path35"
       inkscape:connector-curvature="0"
       style="fill:#e6e6e6" />
    <path
       d="m 742.551,376.377 c -0.511,0 -1.001,0.204 -1.363,0.565 -0.361,0.362 -0.564,0.852 -0.565,1.363 v 206.298 c 10e-4,0.511 0.204,1.001 0.565,1.363 0.362,0.361 0.852,0.564 1.363,0.565 h 166.195 c 0.511,-10e-4 1.001,-0.204 1.363,-0.565 0.361,-0.362 0.565,-0.852 0.565,-1.363 V 378.305 c 0,-0.511 -0.204,-1.001 -0.565,-1.363 -0.362,-0.361 -0.852,-0.565 -1.363,-0.565 z"
       id="path37"
       inkscape:connector-curvature="0"
       style="fill:#d6e7f6" />
    <path
       d="m 857.045,471.69 h -61.844 c -0.872,0 -1.578,-14.551 -1.578,-32.5 0,-17.949 0.706,-32.5 1.578,-32.5 h 61.844 c 0.872,0 1.578,14.551 1.578,32.5 0,17.949 -0.706,32.5 -1.578,32.5 z"
       id="path39"
       inkscape:connector-curvature="0"
       style="fill:#ffffff" />
    <path
       d="m 843.725,476.69 h -35.204 c -0.238,0 -0.467,0.369 -0.635,1.025 -0.168,0.656 -0.263,1.547 -0.263,2.475 0,0.928 0.095,1.818 0.263,2.475 0.168,0.656 0.397,1.025 0.635,1.025 h 35.204 c 0.238,0 0.467,-0.369 0.635,-1.025 0.168,-0.657 0.263,-1.547 0.263,-2.475 0,-0.928 -0.095,-1.819 -0.263,-2.475 -0.168,-0.656 -0.397,-1.025 -0.635,-1.025 z"
       id="path41"
       inkscape:connector-curvature="0"
       style="fill:#ffffff" />
    <path
       d="m 857.045,555.69 h -61.844 c -0.872,0 -1.578,-14.551 -1.578,-32.5 0,-17.949 0.706,-32.5 1.578,-32.5 h 61.844 c 0.872,0 1.578,14.551 1.578,32.5 0,17.949 -0.706,32.5 -1.578,32.5 z"
       id="path43"
       inkscape:connector-curvature="0"
       style="fill:#ffffff" />
    <path
       d="m 843.725,558.69 h -35.204 c -0.238,0 -0.467,0.369 -0.635,1.025 -0.168,0.656 -0.263,1.547 -0.263,2.475 0,0.928 0.095,1.818 0.263,2.475 0.168,0.656 0.397,1.025 0.635,1.025 h 35.204 c 0.238,0 0.467,-0.369 0.635,-1.025 0.168,-0.657 0.263,-1.547 0.263,-2.475 0,-0.928 -0.095,-1.819 -0.263,-2.475 -0.168,-0.656 -0.397,-1.025 -0.635,-1.025 z"
       id="path45"
       inkscape:connector-curvature="0"
       style="fill:#ffffff" />
    <path
       d="M 881.933,395.474 H 768.566 c -0.767,0 -1.503,-0.305 -2.045,-0.847 -0.542,-0.542 -0.847,-1.278 -0.847,-2.045 0,-0.767 0.305,-1.503 0.847,-2.045 0.542,-0.542 1.278,-0.847 2.045,-0.847 h 113.367 c 0.768,0 1.503,0.305 2.045,0.847 0.543,0.542 0.848,1.278 0.848,2.045 0,0.767 -0.305,1.503 -0.848,2.045 -0.542,0.542 -1.277,0.847 -2.045,0.847 z"
       id="path47"
       inkscape:connector-curvature="0"
       style="fill:#ffffff" />
    <path
       d="m 769.378,471.586 -22.714,12.076 -0.287,-10.063 c 7.413,-1.238 14.467,-3.393 20.988,-6.9 l 2.376,-5.869 c 0.259,-0.64 0.679,-1.201 1.22,-1.629 0.542,-0.428 1.185,-0.707 1.867,-0.812 0.682,-0.104 1.379,-0.029 2.024,0.218 0.644,0.247 1.213,0.657 1.651,1.19 0.641,0.78 0.961,1.774 0.896,2.782 -0.065,1.007 -0.511,1.952 -1.247,2.643 z"
       id="path49"
       inkscape:connector-curvature="0"
       style="fill:#ffb8b8" />
    <path
       d="m 713.88,541.305 c -0.166,-0.608 -0.201,-1.243 -0.103,-1.866 0.097,-0.622 0.326,-1.217 0.669,-1.744 l 4.99,-7.658 c 1.18,-1.811 2.991,-3.119 5.081,-3.67 2.09,-0.552 4.311,-0.307 6.231,0.686 -2.097,3.57 -1.805,6.701 0.724,9.422 -3.926,1.916 -7.554,4.39 -10.773,7.344 -0.587,0.4 -1.262,0.655 -1.968,0.742 -0.705,0.087 -1.422,0.004 -2.089,-0.242 -0.667,-0.246 -1.266,-0.648 -1.746,-1.172 -0.481,-0.524 -0.829,-1.156 -1.016,-1.842 z"
       id="path51"
       inkscape:connector-curvature="0"
       style="fill:#2f2e41" />
    <path
       d="m 770.413,531.293 c -0.755,1.259 -1.821,2.302 -3.095,3.03 -1.275,0.727 -2.715,1.116 -4.182,1.127 l -33.147,0.251 -1.437,-8.338 14.663,-4.313 -12.363,-9.487 13.513,-15.813 24.543,22.875 c 1.435,1.337 2.367,3.126 2.641,5.068 0.274,1.942 -0.127,3.919 -1.136,5.6 z"
       id="path53"
       inkscape:connector-curvature="0"
       style="fill:#2f2e41" />
    <path
       d="m 724.814,588.315 h -7.763 c -6.97,-47.775 -14.065,-95.684 6.9,-113.566 l 24.726,4.025 -3.163,20.988 -13.8,15.813 z"
       id="path55"
       inkscape:connector-curvature="0"
       style="fill:#2f2e41" />
    <path
       d="m 730.866,602.994 c -0.607,0.165 -1.243,0.201 -1.866,0.103 -0.622,-0.098 -1.216,-0.326 -1.744,-0.67 l -7.658,-4.989 c -1.811,-1.18 -3.119,-2.99 -3.671,-5.081 -0.551,-2.09 -0.307,-4.31 0.686,-6.23 3.57,2.097 6.701,1.804 9.422,-0.725 1.917,3.926 4.39,7.554 7.344,10.772 0.401,0.587 0.655,1.262 0.742,1.968 0.087,0.706 0.005,1.422 -0.241,2.089 -0.246,0.667 -0.648,1.266 -1.172,1.747 -0.524,0.48 -1.156,0.829 -1.842,1.016 z"
       id="path57"
       inkscape:connector-curvature="0"
       style="fill:#2f2e41" />
    <path
       d="m 758.697,441.544 h -36.903 c -6.815,-9.642 -7.615,-18.861 0,-27.491 0,-3.817 4.929,-6.91 11.01,-6.91 v 0 c 4.762,0 8.985,1.922 10.464,4.764 z"
       id="path59"
       inkscape:connector-curvature="0"
       style="fill:#2f2e41" />
    <path
       d="m 743.214,442.835 -14.375,-3.45 c 2.387,-4.887 2.584,-10.325 1.437,-16.1 l 9.776,-0.288 c 0.306,7.182 1.233,13.892 3.162,19.838 z"
       id="path61"
       inkscape:connector-curvature="0"
       style="fill:#ffb8b8" />
    <path
       d="m 747.165,487.431 c -10.465,7.131 -17.859,0.244 -23.501,-10.382 0.784,-6.502 -0.486,-14.283 -2.837,-22.738 -1.046,-3.729 -0.656,-7.715 1.094,-11.17 1.749,-3.455 4.731,-6.129 8.355,-7.493 l 12.363,5.175 c 10.498,8.556 12.564,17.825 8.625,27.601 z"
       id="path63"
       inkscape:connector-curvature="0"
       style="fill:#3481d7" />
    <path
       d="m 717.051,450.023 -11.501,6.038 20.414,12.075 2.84,7.006 c 0.189,0.468 0.282,0.969 0.271,1.474 -0.01,0.504 -0.123,1.001 -0.332,1.461 -0.209,0.459 -0.509,0.871 -0.883,1.21 -0.373,0.34 -0.811,0.6 -1.288,0.764 -0.543,0.187 -1.121,0.246 -1.69,0.173 -0.569,-0.074 -1.113,-0.279 -1.589,-0.598 -0.477,-0.319 -0.873,-0.744 -1.158,-1.242 -0.285,-0.498 -0.451,-1.055 -0.484,-1.627 l -0.288,-4.883 -25.945,-8.562 c -0.874,-0.289 -1.671,-0.772 -2.33,-1.414 -0.66,-0.642 -1.165,-1.426 -1.476,-2.292 -0.455,-1.263 -0.478,-2.64 -0.066,-3.917 0.412,-1.277 1.235,-2.382 2.342,-3.141 l 20.863,-14.313 z"
       id="path65"
       inkscape:connector-curvature="0"
       style="fill:#ffb8b8" />
    <path
       d="m 728.551,451.173 c -4.796,-2.102 -9.158,0.181 -14.663,2.013 l -0.863,-15.238 c 5.467,-2.914 10.679,-3.699 15.526,-1.438 z"
       id="path67"
       inkscape:connector-curvature="0"
       style="fill:#3481d7" />
    <path
       d="m 758.02,441.544 h -8.139 c -5.066,-9.346 -4.836,-25.857 -15.724,-22.177 -6.995,-4.152 -2.981,12.14 -4.721,22.177 h -7.078 c -1.924,-9.806 -1.95,-19.632 0.312,-27.623 0.022,-0.524 0.154,-1.037 0.387,-1.506 0.233,-0.469 0.563,-0.883 0.967,-1.216 0.351,-0.322 0.732,-0.611 1.136,-0.863 2.501,-1.576 4.181,-2.473 7.836,-2.473 2.045,-0.005 4.081,0.275 6.049,0.831 0.256,0.075 0.509,0.156 0.753,0.24 0.336,0.115 0.661,0.241 0.972,0.376 1.598,0.688 2.855,1.618 3.45,2.783 6.889,8.215 10.405,18.581 13.8,29.451 z"
       id="path69"
       inkscape:connector-curvature="0"
       style="fill:#2f2e41" />
    <path
       d="m 734.289,430.545 c 5.069,0 9.178,-4.109 9.178,-9.178 0,-5.069 -4.109,-9.178 -9.178,-9.178 -5.069,0 -9.179,4.109 -9.179,9.178 0,5.069 4.11,9.178 9.179,9.178 z"
       id="path71"
       inkscape:connector-curvature="0"
       style="fill:#ffb8b8" />
    <path
       d="m 743.598,417.827 c -2.761,-3.764 -9.962,0.726 -18.619,3.933 v -8.916 c 7.122,-3.135 11.274,-4.039 15.997,-0.786 z"
       id="path73"
       inkscape:connector-curvature="0"
       style="fill:#2f2e41" />
    <path
       d="m 905.008,401.157 c 12.279,0 22.233,-9.954 22.233,-22.234 0,-12.279 -9.954,-22.233 -22.233,-22.233 -12.279,0 -22.234,9.954 -22.234,22.233 0,12.28 9.955,22.234 22.234,22.234 z"
       id="path75"
       inkscape:connector-curvature="0"
       style="fill:#3481d7" />
    <path
       d="m 895.745,377.456 c -0.39,0 -0.763,0.155 -1.038,0.43 -0.275,0.275 -0.43,0.648 -0.43,1.037 0,0.39 0.155,0.763 0.43,1.038 0.275,0.275 0.648,0.43 1.038,0.43 h 7.796 v 7.796 c 0,0.389 0.155,0.763 0.43,1.038 0.275,0.275 0.648,0.429 1.037,0.429 0.39,0 0.763,-0.154 1.038,-0.429 0.275,-0.275 0.43,-0.649 0.43,-1.038 v -7.796 h 7.796 c 0.389,0 0.763,-0.155 1.038,-0.43 0.275,-0.275 0.43,-0.648 0.43,-1.038 0,-0.389 -0.155,-0.762 -0.43,-1.037 -0.275,-0.275 -0.649,-0.43 -1.038,-0.43 h -7.796 v -7.797 c 0,-0.389 -0.155,-0.762 -0.43,-1.037 -0.275,-0.275 -0.648,-0.43 -1.038,-0.43 -0.389,0 -0.762,0.155 -1.037,0.43 -0.275,0.275 -0.43,0.648 -0.43,1.037 v 7.797 z"
       id="path77"
       inkscape:connector-curvature="0"
       style="fill:#ffffff" />
  </g>
  <g
     clip-path="url(#clip1)"
     id="g139"
     transform="translate(-572.88375,-149.06133)">
    <path
       d="m 1180.34,241.162 c -4.21,-7.114 -12.54,-7.445 -12.54,-7.445 0,0 -8.11,-1.038 -13.32,9.796 -4.85,10.099 -11.55,19.85 -1.08,22.214 l 1.89,-5.888 1.17,6.326 c 1.5,0.107 2.99,0.133 4.49,0.076 11.21,-0.362 21.89,0.106 21.55,-3.918 -0.46,-5.35 1.89,-14.316 -2.16,-21.161 z"
       id="path81"
       inkscape:connector-curvature="0"
       style="fill:#2f2e41" />
    <path
       d="m 1158.85,424.207 c 35.55,0 64.37,-1.672 64.37,-3.735 0,-2.064 -28.82,-3.736 -64.37,-3.736 -35.55,0 -64.37,1.672 -64.37,3.736 0,2.063 28.82,3.735 64.37,3.735 z"
       id="path83"
       inkscape:connector-curvature="0"
       style="fill:#3f3d56" />
    <path
       d="m 1056.55,415.586 c 45.08,0 81.61,-1.672 81.61,-3.735 0,-2.063 -36.53,-3.736 -81.61,-3.736 -45.07,0 -81.606,1.673 -81.606,3.736 0,2.063 36.536,3.735 81.606,3.735 z"
       id="path85"
       inkscape:connector-curvature="0"
       style="fill:#3f3d56" />
    <path
       d="m 1103.68,433.69 c 40.15,0 72.7,-1.673 72.7,-3.736 0,-2.063 -32.55,-3.735 -72.7,-3.735 -40.15,0 -72.7,1.672 -72.7,3.735 0,2.063 32.55,3.736 72.7,3.736 z"
       id="path87"
       inkscape:connector-curvature="0"
       style="fill:#3f3d56" />
    <path
       d="m 1133.93,405.279 c 0.26,9.068 -5.04,12.392 -11.69,12.586 -0.15,0.004 -0.3,0.007 -0.46,0.008 -0.31,0.002 -0.61,-0.003 -0.91,-0.015 -6.02,-0.25 -10.78,-3.442 -11.02,-11.876 -0.26,-8.728 10.57,-20.068 11.39,-20.907 v 0 c 0.03,-0.032 0.05,-0.048 0.05,-0.048 0,0 12.37,11.184 12.64,20.252 z"
       id="path89"
       inkscape:connector-curvature="0"
       style="fill:#3481d7" />
    <path
       d="m 1121.76,416.49 4.23,-6.281 -4.22,6.957 0.01,0.707 c -0.31,0.002 -0.61,-0.003 -0.91,-0.015 l 0.21,-9.086 -0.01,-0.07 0.01,-0.014 0.02,-0.859 -4.63,-6.716 4.62,6.074 0.02,0.181 0.16,-6.864 -4,-6.964 4.01,5.758 -0.04,-14.223 v -0.047 0.047 l 0.26,11.209 3.64,-4.553 -3.63,5.518 0.08,6.141 3.36,-5.993 -3.34,6.895 0.04,3.415 4.87,-8.348 -4.85,9.539 z"
       id="path91"
       inkscape:connector-curvature="0"
       style="fill:#3f3d56" />
    <path
       d="m 997.146,398.957 c 0.264,9.068 -5.034,12.392 -11.684,12.586 -0.154,0.004 -0.308,0.007 -0.461,0.008 -0.309,0.003 -0.614,-0.003 -0.916,-0.015 -6.014,-0.25 -10.775,-3.442 -11.021,-11.876 -0.255,-8.728 10.578,-20.068 11.391,-20.906 l 10e-4,-0.001 c 0.031,-0.032 0.047,-0.048 0.047,-0.048 0,0 12.378,11.184 12.643,20.252 z"
       id="path93"
       inkscape:connector-curvature="0"
       style="fill:#3481d7" />
    <path
       d="m 984.983,410.169 4.225,-6.282 -4.216,6.958 0.009,0.706 c -0.308,0.003 -0.614,-0.002 -0.916,-0.015 l 0.209,-9.086 -0.005,-0.07 0.007,-0.014 0.02,-0.858 -4.626,-6.717 4.621,6.074 0.016,0.182 0.158,-6.865 -3.995,-6.963 4.007,5.757 -0.042,-14.222 v -0.048 l 10e-4,0.047 0.266,11.209 3.641,-4.553 -3.629,5.518 0.079,6.141 3.351,-5.993 -3.339,6.896 0.045,3.414 4.873,-8.348 -4.858,9.539 z"
       id="path95"
       inkscape:connector-curvature="0"
       style="fill:#3f3d56" />
    <path
       d="m 1216.31,413.834 21.28,-31.651 -21.24,35.056 0.04,3.562 c -1.55,0.012 -3.09,-0.014 -4.61,-0.078 l 1.05,-45.781 -0.03,-0.354 0.04,-0.068 0.1,-4.326 -23.3,-33.841 23.28,30.603 0.08,0.915 0.8,-34.59 -20.14,-35.085 20.19,29.009 -0.21,-71.661 v -0.239 l 0.01,0.235 1.34,56.478 18.34,-22.941 -18.28,27.807 0.4,30.939 16.88,-30.196 -16.82,34.745 0.22,17.204 24.56,-42.063 -24.48,48.065 z"
       id="path97"
       inkscape:connector-curvature="0"
       style="fill:#3f3d56" />
    <path
       d="m 1155.39,308.537 c 0,0 -4.93,13.218 -1.77,25.054 3.16,11.836 11.44,40.046 11.44,40.046 l 11.05,21.896 c 0,0 6.31,4.34 10.06,-4.537 l -10.06,-18.938 9.85,-34.217 c 1.87,-6.398 2.27,-13.138 1.16,-19.712 -0.56,-3.249 -1.52,-6.499 -3.12,-9 0,0 -25.65,-3.945 -28.61,-0.592 z"
       id="path99"
       inkscape:connector-curvature="0"
       style="fill:#2f2e41" />
    <path
       d="m 1165.65,371.269 -5.92,30.774 c 0,0 6.12,4.34 9.67,2.959 l 5.92,-22.686 z"
       id="path101"
       inkscape:connector-curvature="0"
       style="fill:#2f2e41" />
    <path
       d="m 1160.52,401.452 -6.31,12.822 -2.56,5.129 c 0,0 -14.01,13.415 -2.96,12.034 11.05,-1.381 11.83,-3.354 11.83,-3.354 l 2.17,-3.156 0.6,1.183 c 0,0 3.15,-2.564 3.15,-3.353 0,-0.789 -1.18,-8.877 -1.18,-8.877 l 1.58,-9.469 z"
       id="path103"
       inkscape:connector-curvature="0"
       style="fill:#2f2e41" />
    <path
       d="m 1178.48,395.336 3.35,9.075 -1.97,7.89 c 0,0 -7.7,10.456 0.19,9.864 7.89,-0.592 9.28,-6.313 9.28,-6.313 l 1.18,-3.748 0.99,0.395 2.95,-5.327 -5.52,-8.877 -3.75,-6.51 z"
       id="path105"
       inkscape:connector-curvature="0"
       style="fill:#2f2e41" />
    <path
       d="m 1199.39,319.585 1.18,6.115 c 0,0 4.93,11.047 0,11.442 -4.93,0.394 -4.93,-10.85 -4.93,-10.85 l 0.39,-4.537 z"
       id="path107"
       inkscape:connector-curvature="0"
       style="fill:#ffb8b8" />
    <path
       d="m 1114.36,287.824 -6.9,-1.184 c 0,0 -13.61,-7.101 -13.42,-1.972 0.2,5.129 12.83,7.496 12.83,7.496 l 3.74,1.381 z"
       id="path109"
       inkscape:connector-curvature="0"
       style="fill:#ffb8b8" />
    <path
       d="m 1167.23,259.023 c 5.01,0 9.08,-4.063 9.08,-9.075 0,-5.011 -4.07,-9.074 -9.08,-9.074 -5.01,0 -9.07,4.063 -9.07,9.074 0,5.012 4.06,9.075 9.07,9.075 z"
       id="path111"
       inkscape:connector-curvature="0"
       style="fill:#ffb8b8" />
    <path
       d="m 1163.29,256.064 c 0,0 1.97,7.496 -1.58,9.074 -3.55,1.578 -3.95,2.762 -3.95,2.762 0,0 23.68,7.496 25.45,-1.381 l -8.09,-4.537 c 0,0 -0.79,-6.313 -1.58,-6.707 -0.78,-0.395 -10.25,0.789 -10.25,0.789 z"
       id="path113"
       inkscape:connector-curvature="0"
       style="fill:#ffb8b8" />
    <path
       d="m 1191.52,271.782 c -0.14,-0.596 -0.51,-1.114 -1.03,-1.445 -2.06,-1.327 -7.42,-4.697 -8.15,-4.305 -0.91,0.487 -7.87,3.82 -21.65,-0.411 0,0 -10.42,2.871 -13.38,4.843 -2.96,1.973 -9.15,8.341 -9.15,8.341 0,0 -28.07,4.529 -27.87,6.896 0.2,2.368 -2.01,8.046 -2.01,8.046 0,0 18.39,3.736 37.07,-4.023 0,0 5.9,13.684 5.31,16.249 -0.59,2.564 -0.59,4.34 4.14,3.945 4.74,-0.394 12.04,-1.578 15.78,-0.986 3.75,0.592 17.76,1.578 17.76,0.592 v -6.116 c 0,0 4.34,21.306 7.1,21.306 2.76,0 7.04,-1.665 8.81,-7.978 l -8.62,-27.586 z"
       id="path115"
       inkscape:connector-curvature="0"
       style="fill:#cee4f3" />
    <path
       d="m 1169.77,330.048 -4.87,42.243 0.85,0.098 4.88,-42.242 z"
       id="path117"
       inkscape:connector-curvature="0"
       style="opacity:0.2;fill:#000000" />
    <path
       d="m 1178.48,240.801 -8.23,-4.311 -11.36,1.764 -2.35,10.384 5.85,-0.225 1.63,-3.815 v 3.752 l 2.71,-0.104 1.56,-6.074 0.98,6.466 9.6,-0.196 z"
       id="path119"
       inkscape:connector-curvature="0"
       style="fill:#2f2e41" />
    <path
       d="m 1090.87,269.467 c -0.32,-0.323 -0.7,-0.58 -1.12,-0.756 -0.43,-0.176 -0.88,-0.266 -1.33,-0.267 -0.46,0 -0.91,0.089 -1.34,0.263 -0.42,0.175 -0.8,0.431 -1.12,0.754 -0.33,0.322 -0.58,0.706 -0.76,1.128 -0.17,0.422 -0.26,0.874 -0.26,1.33 0,0.457 0.09,0.909 0.27,1.33 0.17,0.422 0.43,0.804 0.75,1.126 l 4.91,4.908 4.91,-4.908 c 0.65,-0.651 1.01,-1.533 1.01,-2.452 0,-0.919 -0.37,-1.8 -1.02,-2.449 -0.65,-0.65 -1.53,-1.016 -2.45,-1.017 -0.92,-10e-4 -1.8,0.362 -2.45,1.01 z"
       id="path121"
       inkscape:connector-curvature="0"
       style="fill:#ff6584" />
    <path
       d="m 1103.8,252.226 c -0.32,-0.324 -0.7,-0.581 -1.12,-0.756 -0.43,-0.176 -0.88,-0.267 -1.33,-0.267 -0.46,-0.001 -0.91,0.089 -1.33,0.263 -0.43,0.175 -0.81,0.43 -1.13,0.753 -0.33,0.323 -0.58,0.706 -0.76,1.128 -0.17,0.422 -0.26,0.874 -0.26,1.331 0,0.456 0.09,0.908 0.27,1.33 0.17,0.421 0.43,0.804 0.75,1.126 l 4.91,4.908 4.91,-4.908 c 0.65,-0.652 1.01,-1.533 1.01,-2.452 0,-0.919 -0.37,-1.8 -1.02,-2.45 -0.65,-0.649 -1.53,-1.015 -2.45,-1.016 -0.91,-0.001 -1.8,0.362 -2.45,1.01 z"
       id="path123"
       inkscape:connector-curvature="0"
       style="fill:#ff6584" />
    <path
       d="m 1084.84,236.134 c -0.48,-0.474 -1.04,-0.85 -1.66,-1.106 -0.62,-0.256 -1.28,-0.389 -1.95,-0.389 -0.67,0 -1.33,0.132 -1.95,0.388 -0.62,0.256 -1.18,0.631 -1.65,1.105 -0.48,0.473 -0.85,1.035 -1.11,1.654 -0.25,0.618 -0.39,1.281 -0.39,1.951 0,0.669 0.14,1.332 0.39,1.95 0.26,0.619 0.64,1.181 1.11,1.654 l 7.21,7.206 7.2,-7.206 c 0.48,-0.473 0.85,-1.035 1.11,-1.654 0.26,-0.618 0.39,-1.281 0.39,-1.95 0,-0.67 -0.13,-1.333 -0.39,-1.951 -0.26,-0.619 -0.63,-1.181 -1.1,-1.654 -0.48,-0.474 -1.04,-0.849 -1.66,-1.105 -0.62,-0.256 -1.28,-0.388 -1.95,-0.388 -0.67,0 -1.33,0.133 -1.95,0.389 -0.62,0.256 -1.18,0.632 -1.65,1.106 z"
       id="path125"
       inkscape:connector-curvature="0"
       style="fill:#ff6584" />
    <path
       d="M 1085.7,300.069 H 992.888 V 411.276 H 1085.7 Z"
       id="path127"
       inkscape:connector-curvature="0"
       style="fill:#3f3d56" />
    <path
       d="m 1075.36,307.828 h -71.84 v 95.69 h 71.84 z"
       id="path129"
       inkscape:connector-curvature="0"
       style="fill:#ffffff" />
    <path
       d="m 1054.96,315.299 h -31.33 v 28.161 h 31.33 z"
       id="path131"
       inkscape:connector-curvature="0"
       style="fill:#3481d7" />
    <path
       d="m 1054.96,358.115 h -31.33 v 28.161 h 31.33 z"
       id="path133"
       inkscape:connector-curvature="0"
       style="fill:#3481d7" />
    <path
       d="m 1048.35,388.288 h -18.11 v 2.299 h 18.11 z"
       id="path135"
       inkscape:connector-curvature="0"
       style="fill:#3481d7" />
    <path
       d="m 1048.35,344.897 h -18.11 v 2.299 h 18.11 z"
       id="path137"
       inkscape:connector-curvature="0"
       style="fill:#3481d7" />
  </g>
</svg>
