<?xml version="1.0" encoding="UTF-8" standalone="no"?>
<svg
   xmlns:dc="http://purl.org/dc/elements/1.1/"
   xmlns:cc="http://creativecommons.org/ns#"
   xmlns:rdf="http://www.w3.org/1999/02/22-rdf-syntax-ns#"
   xmlns:svg="http://www.w3.org/2000/svg"
   xmlns="http://www.w3.org/2000/svg"
   xmlns:sodipodi="http://sodipodi.sourceforge.net/DTD/sodipodi-0.dtd"
   xmlns:inkscape="http://www.inkscape.org/namespaces/inkscape"
   width="281.90201"
   height="32"
   viewBox="0 0 281.90201 32"
   version="1.1"
   id="svg10"
   sodipodi:docname="japan_puzzles_logo.svg"
   style="fill:none"
   inkscape:version="0.92.3 (2405546, 2018-03-11)">
  <metadata
     id="metadata16">
    <rdf:RDF>
      <cc:Work
         rdf:about="">
        <dc:format>image/svg+xml</dc:format>
        <dc:type
           rdf:resource="http://purl.org/dc/dcmitype/StillImage" />
        <dc:title></dc:title>
      </cc:Work>
    </rdf:RDF>
  </metadata>
  <defs
     id="defs14" />
  <sodipodi:namedview
     pagecolor="#ffffff"
     bordercolor="#666666"
     borderopacity="1"
     objecttolerance="10"
     gridtolerance="10"
     guidetolerance="10"
     inkscape:pageopacity="0"
     inkscape:pageshadow="2"
     inkscape:window-width="1920"
     inkscape:window-height="1001"
     id="namedview12"
     showgrid="false"
     fit-margin-top="0"
     fit-margin-left="0"
     fit-margin-right="0"
     fit-margin-bottom="0"
     inkscape:zoom="1.0425056"
     inkscape:cx="-91.126609"
     inkscape:cy="15.040773"
     inkscape:window-x="-9"
     inkscape:window-y="-9"
     inkscape:window-maximized="1"
     inkscape:current-layer="svg10" />
  <circle
     cx="16"
     cy="16"
     r="16"
     id="circle2"
     style="fill:#316099" />
  <circle
     cx="32"
     cy="16"
     r="15"
     id="circle4"
     style="fill:#ffffff;stroke:#316099;stroke-width:2" />
  <path
     d="m 31.4688,23 h -3.877 V 8.9375 h 7.5977 c 0.6575,0 1.2858,0.0879 1.8847,0.2637 0.6055,0.1758 1.1393,0.4427 1.6016,0.8008 0.4622,0.3515 0.8301,0.7975 1.1035,1.3378 0.2799,0.5339 0.4199,1.1622 0.4199,1.8848 0,0.4557 -0.0651,0.8854 -0.1953,1.2891 -0.1302,0.3971 -0.3125,0.7617 -0.5469,1.0937 -0.2278,0.3321 -0.498,0.6315 -0.8105,0.8985 -0.3125,0.2669 -0.6543,0.4915 -1.0254,0.6738 -0.3711,0.1823 -0.765,0.3223 -1.1816,0.4199 -0.4102,0.0977 -0.8269,0.1465 -1.25,0.1465 h -3.7207 z m 4.8046,-9.7754 c 0,-0.9049 -0.2311,-1.6146 -0.6933,-2.1289 -0.4558,-0.5208 -1.1459,-0.7812 -2.0703,-0.7812 h -2.041 v 6.1035 h 2.041 c 0.4948,0 0.9147,-0.0782 1.2597,-0.2344 0.3516,-0.1628 0.6381,-0.3874 0.8594,-0.6738 0.2214,-0.2865 0.3841,-0.6218 0.4883,-1.0059 0.1042,-0.3906 0.1562,-0.8171 0.1562,-1.2793 z"
     id="path6"
     inkscape:connector-curvature="0"
     style="fill:#316099" />
  <path
     d="m 80.5176,16.5859 c 0,0.905 -0.1172,1.8262 -0.3516,2.7637 -0.2278,0.931 -0.5501,1.8327 -0.9668,2.7051 -0.4101,0.8789 -0.9049,1.6992 -1.4844,2.4609 -0.5794,0.7617 -1.2174,1.4258 -1.914,1.9922 l -1.5039,-0.9082 c 0.3906,-0.5338 0.7324,-1.1393 1.0254,-1.8164 0.2929,-0.6771 0.5371,-1.3802 0.7324,-2.1094 0.1953,-0.7291 0.3418,-1.4616 0.4394,-2.1972 0.0977,-0.7357 0.1465,-1.4356 0.1465,-2.0996 V 6.9375 h 3.877 z M 95.5852,21 h -3.3008 v -1.3477 c -0.3906,0.5339 -0.8627,0.931 -1.416,1.1915 -0.5469,0.2539 -1.1491,0.3808 -1.8067,0.3808 -0.8594,0 -1.6276,-0.153 -2.3047,-0.459 -0.6771,-0.306 -1.25,-0.7226 -1.7187,-1.25 -0.4688,-0.5338 -0.8268,-1.1588 -1.0742,-1.875 -0.2474,-0.7161 -0.3711,-1.4844 -0.3711,-2.3047 0,-0.8203 0.1237,-1.5885 0.3711,-2.3047 0.2474,-0.7161 0.6054,-1.3378 1.0742,-1.8652 0.4687,-0.5338 1.0416,-0.9538 1.7187,-1.2598 0.6771,-0.3059 1.4453,-0.4589 2.3047,-0.4589 0.4362,0 0.8496,0.0651 1.2403,0.1953 0.3971,0.1302 0.7584,0.3157 1.0839,0.5566 0.3321,0.2344 0.6218,0.5209 0.8692,0.8594 0.2539,0.332 0.4525,0.7031 0.5957,1.1133 l 1.4648,-2.4512 h 1.2696 z m -3.3204,-5.6641 c 0,-0.2929 -0.0162,-0.6022 -0.0488,-0.9277 -0.026,-0.3255 -0.0749,-0.6478 -0.1465,-0.9668 -0.0716,-0.319 -0.1725,-0.6217 -0.3027,-0.9082 -0.1237,-0.293 -0.2865,-0.5501 -0.4883,-0.7715 -0.1953,-0.2278 -0.4329,-0.4069 -0.7129,-0.5371 -0.2799,-0.1302 -0.6054,-0.1953 -0.9765,-0.1953 -0.3711,0 -0.6934,0.0684 -0.9668,0.2051 -0.2735,0.1302 -0.5078,0.3092 -0.7032,0.5371 -0.1953,0.2213 -0.358,0.4785 -0.4882,0.7715 -0.1237,0.2929 -0.2214,0.5989 -0.293,0.9179 -0.0716,0.319 -0.1237,0.6413 -0.1563,0.9668 -0.026,0.319 -0.039,0.6218 -0.039,0.9082 0,0.2865 0.013,0.5925 0.039,0.918 0.0326,0.3255 0.0847,0.6478 0.1563,0.9668 0.0716,0.319 0.1693,0.625 0.293,0.918 0.1302,0.2929 0.2929,0.5534 0.4882,0.7812 0.1954,0.2214 0.4297,0.4004 0.7032,0.5371 0.2734,0.1302 0.5957,0.1953 0.9668,0.1953 0.3385,0 0.638,-0.0683 0.8984,-0.205 0.2669,-0.1433 0.498,-0.3321 0.6934,-0.5664 0.2018,-0.2344 0.3711,-0.5013 0.5078,-0.8008 0.1367,-0.2995 0.2474,-0.6087 0.332,-0.9278 0.0846,-0.319 0.1465,-0.6347 0.1856,-0.9472 0.039,-0.319 0.0585,-0.6087 0.0585,-0.8692 z m 18.8762,0 c 0,0.8203 -0.124,1.5886 -0.371,2.3047 -0.247,0.7162 -0.606,1.3412 -1.074,1.875 -0.469,0.5274 -1.042,0.944 -1.719,1.25 -0.677,0.306 -1.445,0.459 -2.305,0.459 -0.657,0 -1.263,-0.1269 -1.816,-0.3808 -0.547,-0.2605 -1.016,-0.6576 -1.406,-1.1915 v 6.5528 H 99.1488 V 9.7207 h 1.2692 l 1.465,2.4512 c 0.143,-0.4102 0.339,-0.7813 0.586,-1.1133 0.254,-0.3385 0.544,-0.625 0.869,-0.8594 0.332,-0.2409 0.694,-0.4264 1.084,-0.5566 0.397,-0.1302 0.814,-0.1953 1.25,-0.1953 0.86,0 1.628,0.153 2.305,0.4589 0.677,0.306 1.25,0.726 1.719,1.2598 0.468,0.5274 0.827,1.1491 1.074,1.8652 0.247,0.7162 0.371,1.4844 0.371,2.3047 z m -3.35,0 c 0,-0.2864 -0.016,-0.5892 -0.048,-0.9082 -0.026,-0.3255 -0.075,-0.6478 -0.147,-0.9668 -0.072,-0.319 -0.172,-0.625 -0.303,-0.9179 -0.123,-0.293 -0.283,-0.5502 -0.478,-0.7715 -0.195,-0.2279 -0.433,-0.4069 -0.713,-0.5371 -0.273,-0.1367 -0.592,-0.2051 -0.957,-0.2051 -0.378,0 -0.706,0.0651 -0.986,0.1953 -0.274,0.1302 -0.511,0.3093 -0.713,0.5371 -0.196,0.2214 -0.358,0.4785 -0.489,0.7715 -0.123,0.2865 -0.221,0.5892 -0.293,0.9082 -0.071,0.319 -0.123,0.6413 -0.156,0.9668 -0.026,0.3255 -0.039,0.6348 -0.039,0.9277 0,0.2605 0.02,0.5502 0.059,0.8692 0.039,0.3125 0.101,0.6282 0.185,0.9472 0.085,0.3191 0.196,0.6283 0.332,0.9278 0.137,0.2995 0.303,0.5664 0.498,0.8008 0.202,0.2343 0.433,0.4231 0.694,0.5664 0.267,0.1367 0.569,0.205 0.908,0.205 0.371,0 0.693,-0.0651 0.967,-0.1953 0.273,-0.1367 0.508,-0.3157 0.703,-0.5371 0.195,-0.2278 0.355,-0.4883 0.478,-0.7812 0.131,-0.293 0.231,-0.599 0.303,-0.918 0.072,-0.319 0.121,-0.6413 0.147,-0.9668 0.032,-0.3255 0.048,-0.6315 0.048,-0.918 z M 125.427,21 h -3.3 v -1.3477 c -0.391,0.5339 -0.863,0.931 -1.416,1.1915 -0.547,0.2539 -1.15,0.3808 -1.807,0.3808 -0.859,0 -1.628,-0.153 -2.305,-0.459 -0.677,-0.306 -1.25,-0.7226 -1.719,-1.25 -0.468,-0.5338 -0.826,-1.1588 -1.074,-1.875 -0.247,-0.7161 -0.371,-1.4844 -0.371,-2.3047 0,-0.8203 0.124,-1.5885 0.371,-2.3047 0.248,-0.7161 0.606,-1.3378 1.074,-1.8652 0.469,-0.5338 1.042,-0.9538 1.719,-1.2598 0.677,-0.3059 1.446,-0.4589 2.305,-0.4589 0.436,0 0.85,0.0651 1.24,0.1953 0.397,0.1302 0.759,0.3157 1.084,0.5566 0.332,0.2344 0.622,0.5209 0.869,0.8594 0.254,0.332 0.453,0.7031 0.596,1.1133 l 1.465,-2.4512 h 1.269 z m -3.32,-5.6641 c 0,-0.2929 -0.016,-0.6022 -0.049,-0.9277 -0.026,-0.3255 -0.075,-0.6478 -0.146,-0.9668 -0.072,-0.319 -0.173,-0.6217 -0.303,-0.9082 -0.124,-0.293 -0.286,-0.5501 -0.488,-0.7715 -0.196,-0.2278 -0.433,-0.4069 -0.713,-0.5371 -0.28,-0.1302 -0.606,-0.1953 -0.977,-0.1953 -0.371,0 -0.693,0.0684 -0.967,0.2051 -0.273,0.1302 -0.507,0.3092 -0.703,0.5371 -0.195,0.2213 -0.358,0.4785 -0.488,0.7715 -0.124,0.2929 -0.221,0.5989 -0.293,0.9179 -0.072,0.319 -0.124,0.6413 -0.156,0.9668 -0.026,0.319 -0.039,0.6218 -0.039,0.9082 0,0.2865 0.013,0.5925 0.039,0.918 0.032,0.3255 0.084,0.6478 0.156,0.9668 0.072,0.319 0.169,0.625 0.293,0.918 0.13,0.2929 0.293,0.5534 0.488,0.7812 0.196,0.2214 0.43,0.4004 0.703,0.5371 0.274,0.1302 0.596,0.1953 0.967,0.1953 0.339,0 0.638,-0.0683 0.899,-0.205 0.267,-0.1433 0.498,-0.3321 0.693,-0.5664 0.202,-0.2344 0.371,-0.5013 0.508,-0.8008 0.137,-0.2995 0.247,-0.6087 0.332,-0.9278 0.085,-0.319 0.146,-0.6347 0.185,-0.9472 0.04,-0.319 0.059,-0.6087 0.059,-0.8692 z m 18.417,-0.8007 c 0,0.7617 -0.094,1.5559 -0.283,2.3828 -0.182,0.8268 -0.439,1.6373 -0.771,2.4316 -0.332,0.7943 -0.73,1.5397 -1.192,2.2363 -0.462,0.7032 -0.97,1.3086 -1.523,1.8164 l -1.241,-0.6738 c 0.176,-0.3255 0.342,-0.6901 0.499,-1.0937 0.156,-0.4037 0.296,-0.8301 0.419,-1.2793 0.131,-0.4558 0.245,-0.9245 0.342,-1.4063 0.104,-0.4818 0.189,-0.957 0.254,-1.4258 0.072,-0.4752 0.124,-0.9342 0.156,-1.3769 0.039,-0.4492 0.059,-0.8659 0.059,-1.25 0,-0.2539 -0.01,-0.5241 -0.029,-0.8106 -0.02,-0.2929 -0.062,-0.5826 -0.127,-0.8691 -0.059,-0.293 -0.14,-0.5729 -0.244,-0.8398 -0.105,-0.267 -0.245,-0.5013 -0.42,-0.7032 -0.17,-0.2018 -0.378,-0.3646 -0.625,-0.4883 C 135.557,11.0618 135.27,11 134.938,11 c -0.325,0 -0.615,0.0749 -0.869,0.2246 -0.254,0.1432 -0.478,0.3353 -0.674,0.5762 -0.195,0.2344 -0.364,0.5045 -0.507,0.8105 -0.137,0.306 -0.251,0.6218 -0.342,0.9473 -0.085,0.319 -0.147,0.6348 -0.186,0.9473 -0.039,0.3125 -0.058,0.5924 -0.058,0.8398 V 21 h -3.311 V 9.7207 h 1.27 l 1.513,2.627 c 0.183,-0.4362 0.41,-0.8334 0.684,-1.1915 0.273,-0.358 0.582,-0.664 0.928,-0.9179 0.345,-0.2539 0.725,-0.4492 1.142,-0.586 0.423,-0.1367 0.879,-0.205 1.367,-0.205 0.782,0 1.462,0.1269 2.041,0.3808 0.58,0.2539 1.062,0.6087 1.446,1.0645 0.384,0.4492 0.67,0.9863 0.859,1.6113 0.189,0.6185 0.283,1.2956 0.283,2.0313 z M 147.594,21 h -3.877 V 6.9375 h 7.597 c 0.658,0 1.286,0.0879 1.885,0.2637 0.606,0.1758 1.14,0.4427 1.602,0.8008 0.462,0.3515 0.83,0.7975 1.103,1.3378 0.28,0.5339 0.42,1.1622 0.42,1.8848 0,0.4557 -0.065,0.8854 -0.195,1.2891 -0.13,0.3971 -0.313,0.7617 -0.547,1.0937 -0.228,0.3321 -0.498,0.6315 -0.811,0.8985 -0.312,0.2669 -0.654,0.4915 -1.025,0.6738 -0.371,0.1823 -0.765,0.3223 -1.182,0.4199 -0.41,0.0977 -0.826,0.1465 -1.25,0.1465 h -3.72 z m 4.804,-9.7754 c 0,-0.9049 -0.231,-1.6146 -0.693,-2.1289 -0.456,-0.5208 -1.146,-0.7812 -2.07,-0.7812 h -2.041 v 6.1035 h 2.041 c 0.495,0 0.914,-0.0782 1.26,-0.2344 0.351,-0.1628 0.638,-0.3874 0.859,-0.6738 0.221,-0.2865 0.384,-0.6218 0.488,-1.0059 0.104,-0.3906 0.156,-0.8171 0.156,-1.2793 z m 5.722,4.9512 c 0,-0.5143 0.043,-1.0482 0.127,-1.6016 0.091,-0.5534 0.218,-1.1068 0.381,-1.6601 0.169,-0.5534 0.371,-1.1003 0.606,-1.6407 0.234,-0.5403 0.498,-1.0579 0.791,-1.5527 h 2.412 c -0.163,0.4883 -0.31,0.9994 -0.44,1.5332 -0.123,0.5273 -0.231,1.0579 -0.322,1.5918 -0.085,0.5273 -0.153,1.0449 -0.205,1.5527 -0.046,0.5078 -0.068,0.9799 -0.068,1.4161 0,0.2539 0.009,0.5273 0.029,0.8203 0.026,0.2864 0.068,0.5761 0.127,0.8691 0.058,0.2865 0.14,0.5632 0.244,0.8301 0.111,0.2669 0.251,0.5045 0.42,0.7129 0.169,0.2018 0.374,0.3646 0.615,0.4883 0.248,0.1171 0.537,0.1757 0.869,0.1757 0.326,0 0.615,-0.0716 0.869,-0.2148 0.261,-0.1497 0.489,-0.3418 0.684,-0.5762 0.195,-0.2409 0.361,-0.5143 0.498,-0.8203 0.137,-0.306 0.247,-0.6185 0.332,-0.9375 0.091,-0.3255 0.156,-0.6413 0.195,-0.9473 0.046,-0.3125 0.069,-0.5924 0.069,-0.8398 V 9.7207 h 3.301 V 21 h -1.27 l -1.514,-2.627 c -0.188,0.4362 -0.42,0.8334 -0.693,1.1915 -0.267,0.3515 -0.573,0.6543 -0.918,0.9082 -0.345,0.2539 -0.729,0.4492 -1.152,0.5859 -0.417,0.1367 -0.869,0.2051 -1.358,0.2051 -0.781,0 -1.461,-0.127 -2.041,-0.3809 -0.579,-0.2539 -1.061,-0.6055 -1.445,-1.0547 -0.384,-0.4492 -0.671,-0.983 -0.859,-1.6015 -0.189,-0.625 -0.284,-1.3086 -0.284,-2.0508 z M 182.143,21 h -9.551 v -1.3086 l 5.908,-8.6621 h -5.908 V 9.7207 h 9.551 v 1.3086 l -5.908,8.6621 h 5.908 z m 11.855,0 h -9.551 v -1.3086 l 5.908,-8.6621 h -5.908 V 9.7207 h 9.551 v 1.3086 l -5.909,8.6621 h 5.909 z m 6.22,0 h -3.301 V 4.5254 h 1.269 l 2.032,3.4277 z m 6.268,-5.3516 c 0.404,0.0912 0.808,0.1628 1.211,0.2149 0.404,0.0521 0.811,0.0781 1.221,0.0781 0.43,0 0.827,-0.0391 1.191,-0.1172 0.371,-0.0846 0.69,-0.2213 0.957,-0.4101 0.274,-0.1953 0.489,-0.4525 0.645,-0.7715 0.156,-0.319 0.234,-0.7162 0.234,-1.1914 0,-0.3841 -0.052,-0.7357 -0.156,-1.0547 -0.104,-0.319 -0.26,-0.5925 -0.469,-0.8203 -0.202,-0.2279 -0.452,-0.4037 -0.752,-0.5274 -0.299,-0.1302 -0.647,-0.1953 -1.045,-0.1953 -0.371,0 -0.706,0.0684 -1.005,0.2051 -0.293,0.1367 -0.554,0.3223 -0.782,0.5566 -0.221,0.2279 -0.413,0.4948 -0.576,0.8008 -0.156,0.306 -0.286,0.625 -0.39,0.957 -0.105,0.3321 -0.18,0.6674 -0.225,1.0059 -0.046,0.3385 -0.068,0.6576 -0.068,0.957 0,0.0521 0,0.1042 0,0.1563 0,0.0521 0.003,0.1042 0.009,0.1562 z m 8.135,-2.2265 c 0,0.4622 -0.075,0.8756 -0.225,1.2402 -0.149,0.3581 -0.354,0.6738 -0.615,0.9473 -0.254,0.2734 -0.55,0.5045 -0.888,0.6933 -0.339,0.1888 -0.7,0.3451 -1.084,0.4688 -0.385,0.1172 -0.782,0.2018 -1.192,0.2539 -0.403,0.0521 -0.797,0.0781 -1.181,0.0781 -0.489,0 -0.971,-0.0325 -1.446,-0.0976 -0.475,-0.0717 -0.944,-0.1823 -1.406,-0.3321 0.072,0.4297 0.186,0.8399 0.342,1.2305 0.156,0.3841 0.364,0.7227 0.625,1.0156 0.26,0.2865 0.579,0.5143 0.957,0.6836 0.384,0.1693 0.836,0.2539 1.357,0.2539 0.345,0 0.674,-0.0521 0.987,-0.1562 0.312,-0.1042 0.599,-0.2507 0.859,-0.4395 0.26,-0.1888 0.488,-0.4134 0.684,-0.6738 0.201,-0.2604 0.364,-0.5501 0.488,-0.8691 l 1.426,0.5273 c -0.215,0.5143 -0.511,0.9603 -0.889,1.3379 -0.371,0.3711 -0.794,0.6803 -1.27,0.9277 -0.468,0.2409 -0.97,0.4199 -1.504,0.5371 -0.527,0.1172 -1.051,0.1758 -1.572,0.1758 -0.859,0 -1.653,-0.1432 -2.383,-0.4297 -0.729,-0.2929 -1.357,-0.6998 -1.884,-1.2207 -0.528,-0.5208 -0.941,-1.1426 -1.241,-1.8652 -0.299,-0.7227 -0.449,-1.5137 -0.449,-2.3731 0,-0.8593 0.15,-1.6504 0.449,-2.373 0.3,-0.7227 0.713,-1.3444 1.241,-1.8652 0.527,-0.5209 1.155,-0.9245 1.884,-1.211 0.73,-0.2929 1.524,-0.4394 2.383,-0.4394 0.417,0 0.843,0.0293 1.28,0.0879 0.436,0.0586 0.859,0.153 1.269,0.2832 0.41,0.1237 0.798,0.2864 1.162,0.4882 0.365,0.2019 0.68,0.4525 0.947,0.752 0.274,0.293 0.489,0.6348 0.645,1.0254 0.163,0.3906 0.244,0.8366 0.244,1.3379 z m 12.568,3.9746 c 0,0.4948 -0.072,0.9342 -0.215,1.3183 -0.143,0.3842 -0.339,0.7194 -0.586,1.0059 -0.248,0.28 -0.54,0.5176 -0.879,0.7129 -0.339,0.1888 -0.703,0.3418 -1.094,0.459 -0.384,0.1172 -0.788,0.2018 -1.211,0.2539 -0.423,0.0521 -0.843,0.0781 -1.259,0.0781 -0.56,0 -1.055,-0.0358 -1.485,-0.1074 -0.43,-0.0716 -0.84,-0.1856 -1.23,-0.3418 -0.391,-0.1628 -0.782,-0.3711 -1.172,-0.625 -0.384,-0.2539 -0.814,-0.5632 -1.289,-0.9277 l 1.924,-1.5723 c 0.175,0.332 0.406,0.6348 0.693,0.9082 0.293,0.2669 0.596,0.498 0.908,0.6934 0.313,0.1953 0.615,0.345 0.908,0.4492 0.293,0.1041 0.531,0.1562 0.713,0.1562 0.15,0 0.319,-0.0032 0.508,-0.0097 0.189,-0.0131 0.381,-0.0326 0.576,-0.0586 0.196,-0.0326 0.388,-0.0782 0.576,-0.1368 0.189,-0.0585 0.355,-0.1367 0.498,-0.2343 0.15,-0.1042 0.267,-0.2312 0.352,-0.3809 0.091,-0.1562 0.137,-0.3418 0.137,-0.5566 0,-0.2214 -0.059,-0.4134 -0.176,-0.5762 -0.111,-0.1693 -0.257,-0.3158 -0.44,-0.4395 -0.182,-0.1237 -0.39,-0.2278 -0.625,-0.3125 -0.234,-0.0846 -0.472,-0.1595 -0.712,-0.2246 -0.235,-0.0651 -0.463,-0.1204 -0.684,-0.166 -0.221,-0.0521 -0.413,-0.1009 -0.576,-0.1465 -0.3,-0.0846 -0.615,-0.1692 -0.947,-0.2539 -0.332,-0.0911 -0.661,-0.192 -0.987,-0.3027 -0.325,-0.1172 -0.638,-0.2539 -0.937,-0.4102 -0.293,-0.1562 -0.554,-0.3418 -0.782,-0.5566 -0.221,-0.2214 -0.4,-0.4785 -0.537,-0.7715 -0.13,-0.2995 -0.195,-0.6478 -0.195,-1.0449 0,-0.7292 0.143,-1.3379 0.43,-1.8262 0.293,-0.4948 0.677,-0.8887 1.152,-1.1816 0.475,-0.2995 1.016,-0.5111 1.621,-0.6348 0.606,-0.1237 1.221,-0.1855 1.846,-0.1855 0.43,0 0.882,0.0455 1.357,0.1367 0.476,0.0846 0.938,0.2148 1.387,0.3906 0.449,0.1693 0.869,0.3776 1.26,0.625 0.39,0.2474 0.716,0.5306 0.976,0.8496 l -1.923,1.582 c -0.144,-0.3906 -0.332,-0.7259 -0.567,-1.0058 -0.228,-0.28 -0.478,-0.5078 -0.752,-0.6836 -0.267,-0.1823 -0.543,-0.3158 -0.83,-0.4004 -0.28,-0.0846 -0.54,-0.1269 -0.781,-0.1269 -0.235,0 -0.498,0.0097 -0.791,0.0293 -0.293,0.0195 -0.57,0.0748 -0.83,0.166 -0.254,0.0911 -0.472,0.2311 -0.655,0.4199 -0.175,0.1823 -0.263,0.4362 -0.263,0.7617 0,0.2344 0.052,0.4362 0.156,0.6055 0.111,0.1627 0.254,0.306 0.43,0.4297 0.176,0.1172 0.374,0.2181 0.595,0.3027 0.228,0.0781 0.459,0.1497 0.694,0.2148 0.234,0.0586 0.462,0.1107 0.683,0.1563 0.222,0.0456 0.42,0.0944 0.596,0.1465 0.3,0.0846 0.615,0.1725 0.947,0.2636 0.339,0.0847 0.671,0.1856 0.996,0.3028 0.326,0.1107 0.638,0.2441 0.938,0.4004 0.306,0.1497 0.573,0.3353 0.801,0.5566 0.228,0.2214 0.41,0.4818 0.547,0.7813 0.136,0.2929 0.205,0.6412 0.205,1.0449 z m 6.093,2.1387 c 0,0.2474 -0.046,0.4817 -0.137,0.7031 -0.091,0.2148 -0.218,0.4036 -0.381,0.5664 -0.163,0.1562 -0.351,0.2799 -0.566,0.3711 -0.215,0.0976 -0.446,0.1465 -0.694,0.1465 -0.247,0 -0.478,-0.0489 -0.693,-0.1465 -0.215,-0.0912 -0.404,-0.2149 -0.566,-0.3711 -0.163,-0.1628 -0.29,-0.3516 -0.381,-0.5664 -0.091,-0.2214 -0.137,-0.4557 -0.137,-0.7031 0,-0.2409 0.046,-0.4688 0.137,-0.6836 0.091,-0.2214 0.218,-0.4102 0.381,-0.5664 0.162,-0.1628 0.351,-0.2898 0.566,-0.3809 0.215,-0.0977 0.446,-0.1465 0.693,-0.1465 0.248,0 0.479,0.0488 0.694,0.1465 0.215,0.0911 0.403,0.2181 0.566,0.3809 0.163,0.1562 0.29,0.345 0.381,0.5664 0.091,0.2148 0.137,0.4427 0.137,0.6836 z m 13.612,-7.0215 -1.426,0.5664 c -0.228,-0.7162 -0.608,-1.2663 -1.142,-1.6504 -0.534,-0.3841 -1.175,-0.5762 -1.924,-0.5762 -0.404,0 -0.765,0.0651 -1.084,0.1953 -0.313,0.1237 -0.589,0.2963 -0.83,0.5176 -0.234,0.2214 -0.436,0.4785 -0.606,0.7715 -0.162,0.293 -0.296,0.6055 -0.4,0.9375 -0.104,0.332 -0.179,0.6771 -0.225,1.0351 -0.045,0.3516 -0.068,0.6934 -0.068,1.0254 0,0.3581 0.02,0.7194 0.059,1.084 0.039,0.3646 0.104,0.7162 0.195,1.0547 0.098,0.332 0.225,0.6445 0.381,0.9375 0.156,0.2865 0.351,0.5371 0.586,0.752 0.241,0.2148 0.524,0.3841 0.849,0.5078 0.332,0.1237 0.713,0.1855 1.143,0.1855 0.345,0 0.674,-0.0521 0.986,-0.1562 0.313,-0.1042 0.599,-0.2507 0.86,-0.4395 0.26,-0.1888 0.491,-0.4134 0.693,-0.6738 0.202,-0.2604 0.361,-0.5501 0.479,-0.8691 l 1.435,0.5273 c -0.215,0.5143 -0.501,0.9603 -0.859,1.3379 -0.352,0.3711 -0.752,0.6803 -1.201,0.9277 -0.45,0.2409 -0.931,0.4199 -1.446,0.5371 -0.514,0.1172 -1.035,0.1758 -1.562,0.1758 -0.853,0 -1.644,-0.1432 -2.373,-0.4297 -0.73,-0.2929 -1.361,-0.6998 -1.895,-1.2207 -0.527,-0.5273 -0.941,-1.1491 -1.24,-1.8652 -0.3,-0.7227 -0.449,-1.5137 -0.449,-2.3731 0,-0.8658 0.146,-1.6601 0.439,-2.3828 0.3,-0.7226 0.713,-1.3444 1.24,-1.8652 0.528,-0.5208 1.156,-0.9245 1.885,-1.2109 0.729,-0.2865 1.527,-0.4297 2.393,-0.4297 0.547,0 1.08,0.0618 1.601,0.1855 0.521,0.1172 1.003,0.3027 1.446,0.5567 0.449,0.2473 0.849,0.5631 1.201,0.9472 0.358,0.3841 0.644,0.8431 0.859,1.377 z m 14.667,2.8222 c 0,0.586 -0.078,1.1361 -0.234,1.6504 -0.156,0.5144 -0.374,0.9896 -0.654,1.4258 -0.274,0.4362 -0.606,0.8301 -0.996,1.1817 -0.391,0.345 -0.821,0.638 -1.29,0.8789 -0.462,0.2408 -0.96,0.4264 -1.494,0.5566 -0.527,0.1302 -1.071,0.1953 -1.631,0.1953 -0.559,0 -1.103,-0.0651 -1.63,-0.1953 -0.528,-0.1302 -1.026,-0.3158 -1.495,-0.5566 -0.462,-0.2409 -0.888,-0.5339 -1.279,-0.8789 -0.39,-0.3516 -0.726,-0.7455 -1.006,-1.1817 -0.273,-0.4362 -0.488,-0.9114 -0.644,-1.4258 -0.156,-0.5208 -0.235,-1.0709 -0.235,-1.6504 0,-0.5794 0.079,-1.1263 0.235,-1.6406 0.156,-0.5208 0.371,-0.9993 0.644,-1.4355 0.28,-0.4362 0.616,-0.8269 1.006,-1.1719 0.391,-0.3516 0.817,-0.6478 1.279,-0.8887 0.469,-0.2409 0.967,-0.4264 1.495,-0.5566 0.527,-0.1302 1.071,-0.1953 1.63,-0.1953 0.56,0 1.104,0.0651 1.631,0.1953 0.534,0.1302 1.032,0.3157 1.494,0.5566 0.469,0.2409 0.899,0.5371 1.29,0.8887 0.39,0.345 0.722,0.7357 0.996,1.1719 0.28,0.4362 0.498,0.9147 0.654,1.4355 0.156,0.5143 0.234,1.0612 0.234,1.6406 z m -3.359,0 c 0,-0.3125 -0.02,-0.6412 -0.059,-0.9863 -0.032,-0.3516 -0.091,-0.6934 -0.175,-1.0254 -0.085,-0.3385 -0.202,-0.6608 -0.352,-0.9668 -0.143,-0.3125 -0.322,-0.5827 -0.537,-0.8105 -0.215,-0.2344 -0.472,-0.4199 -0.772,-0.5567 -0.299,-0.1432 -0.647,-0.2148 -1.045,-0.2148 -0.377,0 -0.712,0.0716 -1.005,0.2148 -0.293,0.1433 -0.55,0.3353 -0.772,0.5762 -0.215,0.2344 -0.397,0.5078 -0.547,0.8203 -0.143,0.3125 -0.26,0.638 -0.351,0.9766 -0.091,0.332 -0.157,0.6706 -0.196,1.0156 -0.039,0.3385 -0.058,0.6576 -0.058,0.957 0,0.2995 0.019,0.6218 0.058,0.9668 0.039,0.3386 0.105,0.6771 0.196,1.0157 0.091,0.3385 0.208,0.664 0.351,0.9765 0.15,0.306 0.332,0.5794 0.547,0.8203 0.222,0.2344 0.479,0.4232 0.772,0.5664 0.293,0.1433 0.628,0.2149 1.005,0.2149 0.391,0 0.736,-0.0684 1.036,-0.2051 0.299,-0.1432 0.556,-0.332 0.771,-0.5664 0.221,-0.2344 0.404,-0.5046 0.547,-0.8105 0.143,-0.306 0.257,-0.6283 0.342,-0.9668 0.091,-0.3386 0.153,-0.6804 0.185,-1.0254 0.039,-0.3451 0.059,-0.6739 0.059,-0.9864 z m 23.7,-0.9179 c 0,0.7747 -0.091,1.582 -0.273,2.4218 -0.182,0.8399 -0.44,1.6602 -0.772,2.461 -0.325,0.7943 -0.719,1.5462 -1.181,2.2558 -0.462,0.7097 -0.977,1.3249 -1.543,1.8457 l -1.24,-0.6738 c 0.188,-0.3385 0.361,-0.7194 0.517,-1.1426 0.156,-0.4231 0.3,-0.8691 0.43,-1.3379 0.13,-0.4687 0.244,-0.9505 0.342,-1.4453 0.097,-0.4948 0.179,-0.9863 0.244,-1.4746 0.071,-0.4948 0.123,-0.9733 0.156,-1.4355 0.033,-0.4623 0.049,-0.8952 0.049,-1.2988 0,-0.2279 -0.007,-0.4753 -0.02,-0.7422 -0.013,-0.267 -0.042,-0.5339 -0.088,-0.8008 -0.039,-0.2669 -0.1,-0.5209 -0.185,-0.7617 -0.085,-0.2474 -0.202,-0.4655 -0.352,-0.6543 -0.143,-0.1953 -0.325,-0.3483 -0.547,-0.459 C 277.225,11.0586 276.964,11 276.658,11 c -0.299,0 -0.556,0.0814 -0.771,0.2441 -0.209,0.1563 -0.388,0.3614 -0.537,0.6153 -0.15,0.2539 -0.271,0.5403 -0.362,0.8594 -0.084,0.319 -0.149,0.6412 -0.195,0.9667 -0.046,0.3191 -0.078,0.625 -0.098,0.918 -0.013,0.293 -0.019,0.5404 -0.019,0.7422 V 21 h -3.291 v -5.2539 c 0,-0.2279 0.003,-0.5013 0.01,-0.8203 0.006,-0.3255 -0.004,-0.6641 -0.03,-1.0156 -0.019,-0.3516 -0.062,-0.6999 -0.127,-1.045 -0.058,-0.3515 -0.156,-0.664 -0.293,-0.9375 -0.13,-0.2734 -0.309,-0.4948 -0.537,-0.664 C 270.18,11.0879 269.894,11 269.549,11 c -0.293,0 -0.541,0.0814 -0.742,0.2441 -0.196,0.1628 -0.362,0.3744 -0.498,0.6348 -0.131,0.2539 -0.235,0.5436 -0.313,0.8691 -0.072,0.3191 -0.127,0.6413 -0.166,0.9668 -0.032,0.3191 -0.052,0.625 -0.059,0.918 -0.006,0.2865 -0.009,0.5241 -0.009,0.7129 V 21 h -3.311 V 9.7207 h 1.27 l 1.211,2.627 c 0.273,-0.9115 0.703,-1.6211 1.289,-2.1289 0.592,-0.5144 1.377,-0.7715 2.353,-0.7715 0.879,0 1.608,0.1823 2.188,0.5468 0.579,0.3646 1.035,0.9571 1.367,1.7774 0.189,-0.3581 0.397,-0.6804 0.625,-0.9668 0.234,-0.2865 0.491,-0.5306 0.771,-0.7324 0.287,-0.2019 0.603,-0.3549 0.948,-0.459 0.345,-0.1107 0.726,-0.166 1.142,-0.166 0.768,0 1.423,0.1269 1.963,0.3808 0.547,0.2474 0.993,0.5925 1.338,1.0352 0.345,0.4427 0.596,0.97 0.752,1.582 0.156,0.6055 0.234,1.263 0.234,1.9727 z"
     id="path8"
     inkscape:connector-curvature="0"
     style="fill:#316099" />
</svg>
